<?xml version="1.0" encoding="utf-8"?>
<!-- Generator: Adobe Illustrator 25.0.1, SVG Export Plug-In . SVG Version: 6.00 Build 0)  -->
<svg version="1.1" id="Layer_1" xmlns="http://www.w3.org/2000/svg" xmlns:xlink="http://www.w3.org/1999/xlink" x="0px" y="0px"
	 viewBox="0 0 778 161" style="enable-background:new 0 0 778 161;" xml:space="preserve">
<style type="text/css">
	.st0{fill:#9B9B9B;}
</style>
<path d="M162,44.97c-0.49,1.67-0.88,3.39-1.52,5c-0.26,0.65-0.98,1.37-1.63,1.56c-2.98,0.84-6.02,1.51-9.28,2.3
	c0.59-5.04-0.61-9.12-4.04-12.38c-2.6-2.46-5.77-3.62-9.32-3.55c-6.69,0.12-14.43,6.13-12.49,16.66c-21.77-0.44-43.5-0.88-65.4-1.32
	c0.47-4.48-0.67-8.33-3.74-11.46c-2.39-2.43-5.37-3.72-8.76-3.86c-3.72-0.15-7.01,1.09-9.69,3.68c-2.63,2.54-3.94,5.73-4.06,9.57
	c-2.92-0.55-5.69-1.16-8.48-1.57c-2.24-0.33-4.22-0.9-5.51-2.98c-1.48-2.4-2.12-4.98-1.61-7.74c0.21-1.13,0.64-2.34,1.34-3.22
	c0.84-1.06,1.11-2.09,1.05-3.37c-0.07-1.89-0.04-3.79-0.01-5.69c0.03-1.68,0.75-2.78,2.31-2.94c9.77-1,18.5-5.34,27.63-8.42
	c14.47-4.87,29.28-6.48,44.41-3.59c4.59,0.87,8.92,2.5,13.16,4.42c6.64,3.02,13.33,5.91,19.93,9.02c2.91,1.37,6.06,1.43,9.06,2.23
	c6.3,1.69,12.61,3.38,18.91,5.1c3.53,0.96,6.13,2.85,6.76,6.76c0.16,1,0.64,1.96,0.98,2.93C162,43.07,162,44.02,162,44.97z
	 M80.96,13.78c-0.03,0.37-0.08,0.52-0.05,0.64c0.92,3.82,1.89,7.62,2.77,11.45c0.2,0.87,0.73,0.83,1.35,0.85
	c7.3,0.21,14.59,0.42,21.89,0.62c0.44,0.01,0.89,0,1.25,0c0.16-1.01,0.17-1.85,0.44-2.58c0.26-0.71,0.81-1.31,1.3-2.08
	C101.36,16.06,91.3,14.57,80.96,13.78z M78.67,26.12c-0.63-3.9-1.22-7.73-1.9-11.55c-0.05-0.3-0.72-0.7-1.1-0.7
	c-4.65-0.02-9.24,0.45-13.81,1.38c-2.4,0.49-3.82,1.67-5.09,3.69c-1.17,1.86-1.51,3.47-0.71,5.5c0.33,0.85,0.65,1.16,1.56,1.19
	c4.97,0.13,9.94,0.34,14.91,0.48C74.5,26.16,76.48,26.12,78.67,26.12z M43.98,25.49c1.72,0,3.38,0.07,5.02-0.04
	c0.56-0.04,1.27-0.38,1.61-0.81c1.65-2.12,3.2-4.33,4.78-6.51c0.19-0.26,0.32-0.57,0.68-1.21c-3.63,1.69-6.89,3.17-10.12,4.74
	C44.27,22.47,43.76,23.53,43.98,25.49z"/>
<path d="M56.21,50.87c0.23,5.84-4.6,10.94-10.57,11.16c-5.96,0.22-11.09-4.54-11.38-10.55c-0.28-5.92,4.53-11.09,10.55-11.36
	C50.94,39.86,55.96,44.59,56.21,50.87z M49.5,45.89c-0.07-0.16-0.13-0.32-0.2-0.48c-0.96-0.39-1.93-0.78-3.1-1.25
	c0,1.1-0.04,1.89,0.02,2.68c0.02,0.26,0.25,0.66,0.46,0.72c0.28,0.08,0.7-0.03,0.95-0.2C48.28,46.91,48.88,46.38,49.5,45.89z
	 M49.59,56.59c-0.82-0.75-1.39-1.31-2.01-1.81c-0.21-0.17-0.64-0.32-0.82-0.21c-0.26,0.14-0.51,0.52-0.54,0.81
	c-0.07,0.77-0.02,1.56-0.02,2.65C47.39,57.52,48.35,57.11,49.59,56.59z M38.35,50.12c1.06,0,1.91,0.06,2.74-0.02
	c0.82-0.08,1.04-0.59,0.53-1.26c-0.52-0.68-1.11-1.31-1.88-2.21C39.17,48.05,38.8,48.99,38.35,50.12z M39.75,55.49
	c0.74-0.84,1.32-1.45,1.85-2.11c0.53-0.65,0.36-1.19-0.47-1.29c-0.85-0.1-1.72-0.02-2.82-0.02C38.83,53.28,39.22,54.22,39.75,55.49z
	 M50.98,47.13c-0.19-0.07-0.37-0.14-0.56-0.2c-0.46,0.58-0.96,1.15-1.38,1.76c-0.18,0.27-0.36,0.73-0.25,0.97
	c0.1,0.24,0.57,0.41,0.89,0.44c0.74,0.06,1.48,0.02,2.48,0.02C51.71,48.99,51.34,48.06,50.98,47.13z M52.16,52.07
	c-1.04,0-1.83-0.03-2.63,0.01c-0.99,0.04-1.09,0.59-0.62,1.31c0.46,0.7,0.98,1.35,1.47,2.03c0.19-0.12,0.39-0.24,0.58-0.36
	C51.35,54.11,51.72,53.18,52.16,52.07z M40.8,45.61c1.2,0.83,2.07,1.43,2.93,2.02c0.17-0.99,0.34-1.98,0.5-2.97
	c0.01-0.06-0.1-0.15-0.28-0.39C43.08,44.65,42.17,45.03,40.8,45.61z M40.92,56.6c1.26,0.52,2.19,0.91,3.37,1.4
	c0-1.14,0.08-1.94-0.02-2.71c-0.11-0.85-0.58-1.16-1.33-0.51C42.37,55.26,41.82,55.78,40.92,56.6z"/>
<path d="M147.52,51.06c0.07,5.95-4.89,10.95-10.9,10.99c-5.92,0.04-10.98-4.88-11.04-10.74c-0.07-6.11,4.78-11.11,10.86-11.2
	C142.51,40.03,147.45,44.91,147.52,51.06z M137.52,44.16c0,1.09-0.05,1.89,0.01,2.68c0.07,0.9,0.58,1.13,1.31,0.6
	c0.68-0.49,1.3-1.05,2.25-1.83C139.64,45.03,138.68,44.63,137.52,44.16z M143.49,50.12c-0.49-1.18-0.89-2.13-1.44-3.43
	c-0.77,0.88-1.34,1.46-1.82,2.1c-0.54,0.72-0.36,1.25,0.58,1.32C141.59,50.17,142.39,50.12,143.49,50.12z M143.48,52.07
	c-1.09,0-1.89-0.04-2.68,0.01c-0.94,0.07-1.13,0.58-0.58,1.31c0.5,0.66,1.07,1.26,1.85,2.16C142.64,54.14,143.02,53.21,143.48,52.07
	z M132.22,45.57c0.83,0.76,1.4,1.32,2.01,1.83c0.73,0.6,1.24,0.35,1.33-0.53c0.09-0.79,0.02-1.59,0.02-2.71
	C134.41,44.65,133.45,45.05,132.22,45.57z M129.64,50.12c1.07,0,1.87,0.04,2.66-0.02c0.27-0.02,0.68-0.23,0.74-0.43
	c0.08-0.28-0.04-0.7-0.22-0.95c-0.46-0.65-0.99-1.24-1.73-2.13C130.52,47.99,130.12,48.96,129.64,50.12z M131.04,55.45
	c0.8-0.87,1.37-1.43,1.87-2.06c0.59-0.74,0.31-1.23-0.57-1.31c-0.81-0.07-1.63-0.02-2.72-0.02
	C130.13,53.28,130.52,54.21,131.04,55.45z M132.11,56.6c1.42,0.56,2.34,0.93,3.47,1.38c0-1.08,0.06-1.88-0.02-2.66
	c-0.08-0.89-0.56-1.16-1.31-0.55C133.63,55.26,133.04,55.79,132.11,56.6z M141.06,56.54c-0.9-0.74-1.49-1.27-2.14-1.72
	c-0.25-0.18-0.67-0.29-0.95-0.21c-0.2,0.05-0.41,0.46-0.43,0.73c-0.06,0.79-0.02,1.58-0.02,2.67
	C138.68,57.53,139.64,57.13,141.06,56.54z"/>
<path d="M312,48.97c-0.49,1.67-0.88,3.39-1.52,5c-0.26,0.65-0.98,1.37-1.63,1.56c-2.98,0.84-6.02,1.51-9.28,2.3
	c0.59-5.04-0.61-9.12-4.04-12.38c-2.6-2.46-5.77-3.62-9.32-3.55c-6.69,0.12-14.43,6.13-12.49,16.66c-21.77-0.44-43.5-0.88-65.4-1.32
	c0.47-4.48-0.67-8.33-3.74-11.46c-2.39-2.43-5.37-3.72-8.76-3.86c-3.72-0.15-7.01,1.09-9.69,3.68c-2.63,2.54-3.94,5.73-4.06,9.57
	c-2.92-0.55-5.69-1.16-8.48-1.57c-2.24-0.33-4.22-0.9-5.51-2.98c-1.48-2.4-2.12-4.98-1.61-7.74c0.21-1.13,0.64-2.34,1.34-3.22
	c0.84-1.06,1.11-2.09,1.05-3.37c-0.07-1.89-0.04-3.79-0.01-5.69c0.03-1.68,0.75-2.78,2.31-2.94c9.77-1,18.5-5.34,27.63-8.42
	c14.47-4.87,29.28-6.48,44.41-3.59c4.59,0.87,8.92,2.5,13.16,4.42c6.64,3.02,13.33,5.91,19.93,9.02c2.91,1.37,6.06,1.43,9.06,2.23
	c6.3,1.69,12.61,3.38,18.91,5.1c3.53,0.96,6.13,2.85,6.76,6.76c0.16,1,0.64,1.96,0.98,2.93C312,47.07,312,48.02,312,48.97z
	 M230.96,17.78c-0.03,0.37-0.08,0.52-0.05,0.64c0.92,3.82,1.89,7.62,2.77,11.45c0.2,0.87,0.73,0.83,1.35,0.85
	c7.3,0.21,14.59,0.42,21.89,0.62c0.44,0.01,0.89,0,1.25,0c0.16-1.01,0.17-1.85,0.44-2.58c0.26-0.71,0.81-1.31,1.3-2.08
	C251.36,20.06,241.3,18.57,230.96,17.78z M228.67,30.12c-0.63-3.9-1.22-7.73-1.9-11.55c-0.05-0.3-0.72-0.7-1.1-0.7
	c-4.65-0.02-9.24,0.45-13.81,1.38c-2.4,0.49-3.82,1.67-5.09,3.69c-1.17,1.86-1.51,3.47-0.71,5.5c0.33,0.85,0.65,1.16,1.56,1.19
	c4.97,0.13,9.94,0.34,14.91,0.48C224.5,30.16,226.48,30.12,228.67,30.12z M193.98,29.49c1.72,0,3.38,0.07,5.02-0.04
	c0.56-0.04,1.27-0.38,1.61-0.81c1.65-2.12,3.2-4.33,4.78-6.51c0.19-0.26,0.32-0.57,0.68-1.21c-3.63,1.69-6.89,3.17-10.12,4.74
	C194.27,26.47,193.76,27.53,193.98,29.49z"/>
<path d="M206.21,54.87c0.23,5.84-4.6,10.94-10.57,11.16c-5.96,0.22-11.09-4.54-11.38-10.55c-0.28-5.92,4.53-11.09,10.55-11.36
	C200.94,43.86,205.96,48.59,206.21,54.87z M199.5,49.89c-0.07-0.16-0.13-0.32-0.2-0.48c-0.96-0.39-1.93-0.78-3.1-1.25
	c0,1.1-0.04,1.89,0.02,2.68c0.02,0.26,0.25,0.66,0.46,0.72c0.28,0.08,0.7-0.03,0.95-0.2C198.28,50.91,198.88,50.38,199.5,49.89z
	 M199.59,60.59c-0.82-0.75-1.39-1.31-2.01-1.81c-0.21-0.17-0.64-0.32-0.82-0.21c-0.26,0.14-0.51,0.52-0.54,0.81
	c-0.07,0.77-0.02,1.56-0.02,2.65C197.39,61.52,198.35,61.11,199.59,60.59z M188.35,54.12c1.06,0,1.91,0.06,2.74-0.02
	c0.82-0.08,1.04-0.59,0.53-1.26c-0.52-0.68-1.11-1.31-1.88-2.21C189.17,52.05,188.8,52.99,188.35,54.12z M189.75,59.49
	c0.74-0.84,1.32-1.45,1.85-2.11c0.53-0.65,0.36-1.19-0.47-1.29c-0.85-0.1-1.72-0.02-2.82-0.02
	C188.83,57.28,189.22,58.22,189.75,59.49z M200.98,51.13c-0.19-0.07-0.37-0.14-0.56-0.2c-0.46,0.58-0.96,1.15-1.38,1.76
	c-0.18,0.27-0.36,0.73-0.25,0.97c0.1,0.24,0.57,0.41,0.89,0.44c0.74,0.06,1.48,0.02,2.48,0.02
	C201.71,52.99,201.34,52.06,200.98,51.13z M202.16,56.07c-1.04,0-1.83-0.03-2.63,0.01c-0.99,0.04-1.09,0.59-0.62,1.31
	c0.46,0.7,0.98,1.35,1.47,2.03c0.19-0.12,0.39-0.24,0.58-0.36C201.35,58.11,201.72,57.18,202.16,56.07z M190.8,49.61
	c1.2,0.83,2.07,1.43,2.93,2.02c0.17-0.99,0.34-1.98,0.5-2.97c0.01-0.06-0.1-0.15-0.28-0.39C193.08,48.65,192.17,49.03,190.8,49.61z
	 M190.92,60.6c1.26,0.52,2.19,0.91,3.37,1.4c0-1.14,0.08-1.94-0.02-2.71c-0.11-0.85-0.58-1.16-1.33-0.51
	C192.37,59.26,191.82,59.78,190.92,60.6z"/>
<path d="M297.52,55.06c0.07,5.95-4.89,10.95-10.9,10.99c-5.92,0.04-10.98-4.88-11.04-10.74c-0.07-6.11,4.78-11.11,10.86-11.2
	C292.51,44.03,297.45,48.91,297.52,55.06z M287.52,48.16c0,1.09-0.05,1.89,0.01,2.68c0.07,0.9,0.58,1.13,1.31,0.6
	c0.68-0.49,1.3-1.05,2.25-1.83C289.64,49.03,288.68,48.63,287.52,48.16z M293.49,54.12c-0.49-1.18-0.89-2.13-1.44-3.43
	c-0.77,0.88-1.34,1.46-1.82,2.1c-0.54,0.72-0.36,1.25,0.58,1.32C291.59,54.17,292.39,54.12,293.49,54.12z M293.48,56.07
	c-1.09,0-1.89-0.04-2.68,0.01c-0.94,0.07-1.13,0.58-0.58,1.31c0.5,0.66,1.07,1.26,1.85,2.16C292.64,58.14,293.02,57.21,293.48,56.07
	z M282.22,49.57c0.83,0.76,1.4,1.32,2.01,1.83c0.73,0.6,1.24,0.35,1.33-0.53c0.09-0.79,0.02-1.59,0.02-2.71
	C284.41,48.65,283.45,49.05,282.22,49.57z M279.64,54.12c1.07,0,1.87,0.04,2.66-0.02c0.27-0.02,0.68-0.23,0.74-0.43
	c0.08-0.28-0.04-0.7-0.22-0.95c-0.46-0.65-0.99-1.24-1.73-2.13C280.52,51.99,280.12,52.96,279.64,54.12z M281.04,59.45
	c0.8-0.87,1.37-1.43,1.87-2.06c0.59-0.74,0.31-1.23-0.57-1.31c-0.81-0.07-1.63-0.02-2.72-0.02
	C280.13,57.28,280.52,58.21,281.04,59.45z M282.11,60.6c1.42,0.56,2.34,0.93,3.47,1.38c0-1.08,0.06-1.88-0.02-2.66
	c-0.08-0.89-0.56-1.16-1.31-0.55C283.63,59.26,283.04,59.79,282.11,60.6z M291.06,60.54c-0.9-0.74-1.49-1.27-2.14-1.72
	c-0.25-0.18-0.67-0.29-0.95-0.21c-0.2,0.05-0.41,0.46-0.43,0.73c-0.06,0.79-0.02,1.58-0.02,2.67
	C288.68,61.53,289.64,61.13,291.06,60.54z"/>
<path d="M462,48.97c-0.49,1.67-0.88,3.39-1.52,5c-0.26,0.65-0.98,1.37-1.63,1.56c-2.98,0.84-6.02,1.51-9.28,2.3
	c0.59-5.04-0.61-9.12-4.04-12.38c-2.6-2.46-5.77-3.62-9.32-3.55c-6.69,0.12-14.43,6.13-12.49,16.66c-21.77-0.44-43.5-0.88-65.4-1.32
	c0.47-4.48-0.67-8.33-3.74-11.46c-2.39-2.43-5.37-3.72-8.76-3.86c-3.72-0.15-7.01,1.09-9.69,3.68c-2.63,2.54-3.94,5.73-4.06,9.57
	c-2.92-0.55-5.69-1.16-8.48-1.57c-2.24-0.33-4.22-0.9-5.51-2.98c-1.48-2.4-2.12-4.98-1.61-7.74c0.21-1.13,0.64-2.34,1.34-3.22
	c0.84-1.06,1.11-2.09,1.05-3.37c-0.07-1.89-0.04-3.79-0.01-5.69c0.03-1.68,0.75-2.78,2.31-2.94c9.77-1,18.5-5.34,27.63-8.42
	c14.47-4.87,29.28-6.48,44.41-3.59c4.59,0.87,8.92,2.5,13.16,4.42c6.64,3.02,13.33,5.91,19.93,9.02c2.91,1.37,6.06,1.43,9.06,2.23
	c6.3,1.69,12.61,3.38,18.91,5.1c3.53,0.96,6.13,2.85,6.76,6.76c0.16,1,0.64,1.96,0.98,2.93C462,47.07,462,48.02,462,48.97z
	 M380.96,17.78c-0.03,0.37-0.08,0.52-0.05,0.64c0.92,3.82,1.89,7.62,2.77,11.45c0.2,0.87,0.73,0.83,1.35,0.85
	c7.3,0.21,14.59,0.42,21.89,0.62c0.44,0.01,0.89,0,1.25,0c0.16-1.01,0.17-1.85,0.44-2.58c0.26-0.71,0.81-1.31,1.3-2.08
	C401.36,20.06,391.3,18.57,380.96,17.78z M378.67,30.12c-0.63-3.9-1.22-7.73-1.9-11.55c-0.05-0.3-0.72-0.7-1.1-0.7
	c-4.65-0.02-9.24,0.45-13.81,1.38c-2.4,0.49-3.82,1.67-5.09,3.69c-1.17,1.86-1.51,3.47-0.71,5.5c0.33,0.85,0.65,1.16,1.56,1.19
	c4.97,0.13,9.94,0.34,14.91,0.48C374.5,30.16,376.48,30.12,378.67,30.12z M343.98,29.49c1.72,0,3.38,0.07,5.02-0.04
	c0.56-0.04,1.27-0.38,1.61-0.81c1.65-2.12,3.2-4.33,4.78-6.51c0.19-0.26,0.32-0.57,0.68-1.21c-3.63,1.69-6.89,3.17-10.12,4.74
	C344.27,26.47,343.76,27.53,343.98,29.49z"/>
<path d="M356.21,54.87c0.23,5.84-4.6,10.94-10.57,11.16c-5.96,0.22-11.09-4.54-11.38-10.55c-0.28-5.92,4.53-11.09,10.55-11.36
	C350.94,43.86,355.96,48.59,356.21,54.87z M349.5,49.89c-0.07-0.16-0.13-0.32-0.2-0.48c-0.96-0.39-1.93-0.78-3.1-1.25
	c0,1.1-0.04,1.89,0.02,2.68c0.02,0.26,0.25,0.66,0.46,0.72c0.28,0.08,0.7-0.03,0.95-0.2C348.28,50.91,348.88,50.38,349.5,49.89z
	 M349.59,60.59c-0.82-0.75-1.39-1.31-2.01-1.81c-0.21-0.17-0.64-0.32-0.82-0.21c-0.26,0.14-0.51,0.52-0.54,0.81
	c-0.07,0.77-0.02,1.56-0.02,2.65C347.39,61.52,348.35,61.11,349.59,60.59z M338.35,54.12c1.06,0,1.91,0.06,2.74-0.02
	c0.82-0.08,1.04-0.59,0.53-1.26c-0.52-0.68-1.11-1.31-1.88-2.21C339.17,52.05,338.8,52.99,338.35,54.12z M339.75,59.49
	c0.74-0.84,1.32-1.45,1.85-2.11c0.53-0.65,0.36-1.19-0.47-1.29c-0.85-0.1-1.72-0.02-2.82-0.02
	C338.83,57.28,339.22,58.22,339.75,59.49z M350.98,51.13c-0.19-0.07-0.37-0.14-0.56-0.2c-0.46,0.58-0.96,1.15-1.38,1.76
	c-0.18,0.27-0.36,0.73-0.25,0.97c0.1,0.24,0.57,0.41,0.89,0.44c0.74,0.06,1.48,0.02,2.48,0.02
	C351.71,52.99,351.34,52.06,350.98,51.13z M352.16,56.07c-1.04,0-1.83-0.03-2.63,0.01c-0.99,0.04-1.09,0.59-0.62,1.31
	c0.46,0.7,0.98,1.35,1.47,2.03c0.19-0.12,0.39-0.24,0.58-0.36C351.35,58.11,351.72,57.18,352.16,56.07z M340.8,49.61
	c1.2,0.83,2.07,1.43,2.93,2.02c0.17-0.99,0.34-1.98,0.5-2.97c0.01-0.06-0.1-0.15-0.28-0.39C343.08,48.65,342.17,49.03,340.8,49.61z
	 M340.92,60.6c1.26,0.52,2.19,0.91,3.37,1.4c0-1.14,0.08-1.94-0.02-2.71c-0.11-0.85-0.58-1.16-1.33-0.51
	C342.37,59.26,341.82,59.78,340.92,60.6z"/>
<path d="M447.52,55.06c0.07,5.95-4.89,10.95-10.9,10.99c-5.92,0.04-10.98-4.88-11.04-10.74c-0.07-6.11,4.78-11.11,10.86-11.2
	C442.51,44.03,447.45,48.91,447.52,55.06z M437.52,48.16c0,1.09-0.05,1.89,0.01,2.68c0.07,0.9,0.58,1.13,1.31,0.6
	c0.68-0.49,1.3-1.05,2.25-1.83C439.64,49.03,438.68,48.63,437.52,48.16z M443.49,54.12c-0.49-1.18-0.89-2.13-1.44-3.43
	c-0.77,0.88-1.34,1.46-1.82,2.1c-0.54,0.72-0.36,1.25,0.58,1.32C441.59,54.17,442.39,54.12,443.49,54.12z M443.48,56.07
	c-1.09,0-1.89-0.04-2.68,0.01c-0.94,0.07-1.13,0.58-0.58,1.31c0.5,0.66,1.07,1.26,1.85,2.16C442.64,58.14,443.02,57.21,443.48,56.07
	z M432.22,49.57c0.83,0.76,1.4,1.32,2.01,1.83c0.73,0.6,1.24,0.35,1.33-0.53c0.09-0.79,0.02-1.59,0.02-2.71
	C434.41,48.65,433.45,49.05,432.22,49.57z M429.64,54.12c1.07,0,1.87,0.04,2.66-0.02c0.27-0.02,0.68-0.23,0.74-0.43
	c0.08-0.28-0.04-0.7-0.22-0.95c-0.46-0.65-0.99-1.24-1.73-2.13C430.52,51.99,430.12,52.96,429.64,54.12z M431.04,59.45
	c0.8-0.87,1.37-1.43,1.87-2.06c0.59-0.74,0.31-1.23-0.57-1.31c-0.81-0.07-1.63-0.02-2.72-0.02
	C430.13,57.28,430.52,58.21,431.04,59.45z M432.11,60.6c1.42,0.56,2.34,0.93,3.47,1.38c0-1.08,0.06-1.88-0.02-2.66
	c-0.08-0.89-0.56-1.16-1.31-0.55C433.63,59.26,433.04,59.79,432.11,60.6z M441.06,60.54c-0.9-0.74-1.49-1.27-2.14-1.72
	c-0.25-0.18-0.67-0.29-0.95-0.21c-0.2,0.05-0.41,0.46-0.43,0.73c-0.06,0.79-0.02,1.58-0.02,2.67
	C438.68,61.53,439.64,61.13,441.06,60.54z"/>
<path d="M612,52.97c-0.49,1.67-0.88,3.39-1.52,5c-0.26,0.65-0.98,1.37-1.63,1.56c-2.98,0.84-6.02,1.51-9.28,2.3
	c0.59-5.04-0.61-9.12-4.04-12.38c-2.6-2.46-5.77-3.62-9.32-3.55c-6.69,0.12-14.43,6.13-12.49,16.66c-21.77-0.44-43.5-0.88-65.4-1.32
	c0.47-4.48-0.67-8.33-3.74-11.46c-2.39-2.43-5.37-3.72-8.76-3.86c-3.72-0.15-7.01,1.09-9.69,3.68c-2.63,2.54-3.94,5.73-4.06,9.57
	c-2.92-0.55-5.69-1.16-8.48-1.57c-2.24-0.33-4.22-0.9-5.51-2.98c-1.48-2.4-2.12-4.98-1.61-7.74c0.21-1.13,0.64-2.34,1.34-3.22
	c0.84-1.06,1.11-2.09,1.05-3.37c-0.07-1.89-0.04-3.79-0.01-5.69c0.03-1.68,0.75-2.78,2.31-2.94c9.77-1,18.5-5.34,27.63-8.42
	c14.47-4.87,29.28-6.48,44.41-3.59c4.59,0.87,8.92,2.5,13.16,4.42c6.64,3.02,13.33,5.91,19.93,9.02c2.91,1.37,6.06,1.43,9.06,2.23
	c6.3,1.69,12.61,3.38,18.91,5.1c3.53,0.96,6.13,2.85,6.76,6.76c0.16,1,0.64,1.96,0.98,2.93C612,51.07,612,52.02,612,52.97z
	 M530.96,21.78c-0.03,0.37-0.08,0.52-0.05,0.64c0.92,3.82,1.89,7.62,2.77,11.45c0.2,0.87,0.73,0.83,1.35,0.85
	c7.3,0.21,14.59,0.42,21.89,0.62c0.44,0.01,0.89,0,1.25,0c0.16-1.01,0.17-1.85,0.44-2.58c0.27-0.71,0.81-1.31,1.3-2.08
	C551.36,24.06,541.3,22.57,530.96,21.78z M528.67,34.12c-0.63-3.9-1.22-7.73-1.9-11.55c-0.05-0.3-0.72-0.7-1.1-0.7
	c-4.65-0.02-9.24,0.45-13.81,1.38c-2.4,0.49-3.82,1.67-5.09,3.69c-1.17,1.86-1.51,3.47-0.71,5.5c0.33,0.85,0.65,1.16,1.56,1.19
	c4.97,0.13,9.94,0.34,14.91,0.48C524.5,34.16,526.48,34.12,528.67,34.12z M493.98,33.49c1.72,0,3.38,0.07,5.02-0.04
	c0.56-0.04,1.27-0.38,1.61-0.81c1.65-2.12,3.2-4.33,4.78-6.51c0.19-0.26,0.32-0.57,0.68-1.21c-3.63,1.69-6.89,3.17-10.12,4.74
	C494.27,30.47,493.76,31.53,493.98,33.49z"/>
<path d="M506.21,58.87c0.23,5.84-4.6,10.94-10.57,11.16c-5.96,0.22-11.09-4.54-11.38-10.55c-0.28-5.92,4.53-11.09,10.55-11.36
	C500.94,47.86,505.96,52.59,506.21,58.87z M499.5,53.89c-0.07-0.16-0.13-0.32-0.2-0.48c-0.96-0.39-1.93-0.78-3.1-1.25
	c0,1.1-0.04,1.89,0.02,2.68c0.02,0.26,0.25,0.66,0.46,0.72c0.28,0.08,0.7-0.03,0.95-0.2C498.28,54.91,498.88,54.38,499.5,53.89z
	 M499.59,64.59c-0.82-0.75-1.39-1.31-2.01-1.81c-0.21-0.17-0.64-0.32-0.82-0.21c-0.26,0.14-0.51,0.52-0.54,0.81
	c-0.07,0.77-0.02,1.56-0.02,2.65C497.39,65.52,498.35,65.11,499.59,64.59z M488.35,58.12c1.06,0,1.91,0.06,2.74-0.02
	c0.82-0.08,1.04-0.59,0.53-1.26c-0.52-0.68-1.11-1.31-1.88-2.21C489.17,56.05,488.8,56.99,488.35,58.12z M489.75,63.49
	c0.74-0.84,1.32-1.45,1.85-2.11c0.53-0.65,0.36-1.19-0.47-1.29c-0.85-0.1-1.72-0.02-2.82-0.02
	C488.83,61.28,489.22,62.22,489.75,63.49z M500.98,55.13c-0.19-0.07-0.37-0.14-0.56-0.2c-0.46,0.58-0.96,1.15-1.38,1.76
	c-0.18,0.27-0.36,0.73-0.25,0.97c0.1,0.24,0.57,0.41,0.89,0.44c0.74,0.06,1.48,0.02,2.48,0.02
	C501.71,56.99,501.34,56.06,500.98,55.13z M502.16,60.07c-1.04,0-1.83-0.03-2.63,0.01c-0.99,0.04-1.09,0.59-0.62,1.31
	c0.46,0.7,0.98,1.35,1.47,2.03c0.19-0.12,0.39-0.24,0.58-0.36C501.35,62.11,501.72,61.18,502.16,60.07z M490.8,53.61
	c1.2,0.83,2.07,1.43,2.93,2.02c0.17-0.99,0.34-1.98,0.5-2.97c0.01-0.06-0.1-0.15-0.28-0.39C493.08,52.65,492.17,53.03,490.8,53.61z
	 M490.92,64.6c1.26,0.52,2.19,0.91,3.37,1.4c0-1.14,0.08-1.94-0.02-2.71c-0.11-0.85-0.58-1.16-1.33-0.51
	C492.37,63.26,491.82,63.78,490.92,64.6z"/>
<path d="M597.52,59.06c0.07,5.95-4.89,10.95-10.9,10.99c-5.92,0.04-10.98-4.88-11.04-10.74c-0.07-6.11,4.78-11.11,10.86-11.2
	C592.51,48.03,597.45,52.91,597.52,59.06z M587.52,52.16c0,1.09-0.05,1.89,0.01,2.68c0.07,0.9,0.58,1.13,1.31,0.6
	c0.68-0.49,1.3-1.05,2.25-1.83C589.64,53.03,588.68,52.63,587.52,52.16z M593.49,58.12c-0.49-1.18-0.89-2.13-1.44-3.43
	c-0.77,0.88-1.34,1.46-1.82,2.1c-0.54,0.72-0.36,1.25,0.58,1.32C591.59,58.17,592.39,58.12,593.49,58.12z M593.48,60.07
	c-1.09,0-1.89-0.04-2.68,0.01c-0.94,0.07-1.13,0.58-0.58,1.31c0.5,0.66,1.07,1.26,1.85,2.16C592.64,62.14,593.02,61.21,593.48,60.07
	z M582.22,53.57c0.83,0.76,1.4,1.32,2.01,1.83c0.73,0.6,1.24,0.35,1.33-0.53c0.09-0.79,0.02-1.59,0.02-2.71
	C584.41,52.65,583.45,53.05,582.22,53.57z M579.64,58.12c1.07,0,1.87,0.04,2.66-0.02c0.27-0.02,0.68-0.23,0.74-0.43
	c0.08-0.28-0.04-0.7-0.22-0.95c-0.46-0.65-0.99-1.24-1.73-2.13C580.52,55.99,580.12,56.96,579.64,58.12z M581.04,63.45
	c0.8-0.87,1.37-1.43,1.87-2.06c0.59-0.74,0.31-1.23-0.57-1.31c-0.81-0.07-1.63-0.02-2.72-0.02
	C580.13,61.28,580.52,62.21,581.04,63.45z M582.11,64.6c1.42,0.56,2.34,0.93,3.47,1.38c0-1.08,0.06-1.88-0.02-2.66
	c-0.08-0.89-0.56-1.16-1.31-0.55C583.63,63.26,583.04,63.79,582.11,64.6z M591.06,64.54c-0.9-0.74-1.49-1.27-2.14-1.72
	c-0.25-0.18-0.67-0.29-0.95-0.21c-0.2,0.05-0.41,0.46-0.43,0.73c-0.06,0.79-0.02,1.58-0.02,2.67
	C588.68,65.53,589.64,65.13,591.06,64.54z"/>
<path d="M762,55.97c-0.49,1.67-0.88,3.39-1.52,5c-0.26,0.65-0.98,1.37-1.63,1.56c-2.98,0.84-6.02,1.51-9.28,2.3
	c0.59-5.04-0.61-9.12-4.04-12.38c-2.6-2.46-5.77-3.62-9.32-3.55c-6.69,0.12-14.43,6.13-12.49,16.66c-21.77-0.44-43.5-0.88-65.4-1.32
	c0.47-4.48-0.67-8.33-3.74-11.46c-2.39-2.43-5.37-3.72-8.76-3.86c-3.72-0.15-7.01,1.09-9.69,3.68c-2.63,2.54-3.94,5.73-4.06,9.57
	c-2.92-0.55-5.69-1.16-8.48-1.57c-2.24-0.33-4.22-0.9-5.51-2.98c-1.48-2.4-2.12-4.98-1.61-7.74c0.21-1.13,0.64-2.34,1.34-3.22
	c0.84-1.06,1.11-2.09,1.05-3.37c-0.07-1.89-0.04-3.79-0.01-5.69c0.03-1.68,0.75-2.78,2.31-2.94c9.77-1,18.5-5.34,27.63-8.42
	c14.47-4.87,29.28-6.48,44.41-3.59c4.59,0.87,8.92,2.5,13.16,4.42c6.64,3.02,13.33,5.91,19.93,9.02c2.91,1.37,6.06,1.43,9.06,2.23
	c6.3,1.69,12.61,3.38,18.91,5.1c3.53,0.96,6.13,2.85,6.76,6.76c0.16,1,0.64,1.96,0.98,2.93C762,54.07,762,55.02,762,55.97z
	 M680.96,24.78c-0.03,0.37-0.08,0.52-0.05,0.64c0.92,3.82,1.89,7.62,2.77,11.45c0.2,0.87,0.73,0.83,1.35,0.85
	c7.3,0.21,14.59,0.42,21.89,0.62c0.44,0.01,0.89,0,1.25,0c0.16-1.01,0.17-1.85,0.44-2.58c0.27-0.71,0.81-1.31,1.3-2.08
	C701.36,27.06,691.3,25.57,680.96,24.78z M678.67,37.12c-0.63-3.9-1.22-7.73-1.9-11.55c-0.05-0.3-0.72-0.7-1.1-0.7
	c-4.65-0.02-9.24,0.45-13.81,1.38c-2.4,0.49-3.82,1.67-5.09,3.69c-1.17,1.86-1.51,3.47-0.71,5.5c0.33,0.85,0.65,1.16,1.56,1.19
	c4.97,0.13,9.94,0.34,14.91,0.48C674.5,37.16,676.48,37.12,678.67,37.12z M643.98,36.49c1.72,0,3.38,0.07,5.02-0.04
	c0.56-0.04,1.27-0.38,1.61-0.81c1.65-2.12,3.2-4.33,4.78-6.51c0.19-0.26,0.32-0.57,0.68-1.21c-3.63,1.69-6.89,3.17-10.12,4.74
	C644.27,33.47,643.76,34.53,643.98,36.49z"/>
<path d="M656.21,61.87c0.23,5.84-4.6,10.94-10.57,11.16c-5.96,0.22-11.09-4.54-11.38-10.55c-0.28-5.92,4.53-11.09,10.55-11.36
	C650.94,50.86,655.96,55.59,656.21,61.87z M649.5,56.89c-0.07-0.16-0.13-0.32-0.2-0.48c-0.96-0.39-1.93-0.78-3.1-1.25
	c0,1.1-0.04,1.89,0.02,2.68c0.02,0.26,0.25,0.66,0.46,0.72c0.28,0.08,0.7-0.03,0.95-0.2C648.28,57.91,648.88,57.38,649.5,56.89z
	 M649.59,67.59c-0.82-0.75-1.39-1.31-2.01-1.81c-0.21-0.17-0.64-0.32-0.82-0.21c-0.26,0.14-0.51,0.52-0.54,0.81
	c-0.07,0.77-0.02,1.56-0.02,2.65C647.39,68.52,648.35,68.11,649.59,67.59z M638.35,61.12c1.06,0,1.91,0.06,2.74-0.02
	c0.82-0.08,1.04-0.59,0.53-1.26c-0.52-0.68-1.11-1.31-1.88-2.21C639.17,59.05,638.8,59.99,638.35,61.12z M639.75,66.49
	c0.74-0.84,1.32-1.45,1.85-2.11c0.53-0.65,0.36-1.19-0.47-1.29c-0.85-0.1-1.72-0.02-2.82-0.02
	C638.83,64.28,639.22,65.22,639.75,66.49z M650.98,58.13c-0.19-0.07-0.38-0.14-0.56-0.2c-0.46,0.58-0.96,1.15-1.38,1.76
	c-0.18,0.27-0.36,0.73-0.25,0.97c0.1,0.24,0.57,0.41,0.89,0.44c0.74,0.06,1.48,0.02,2.48,0.02
	C651.71,59.99,651.34,59.06,650.98,58.13z M652.16,63.07c-1.04,0-1.83-0.03-2.63,0.01c-0.99,0.04-1.09,0.59-0.62,1.31
	c0.46,0.7,0.98,1.35,1.47,2.03c0.19-0.12,0.39-0.24,0.58-0.36C651.35,65.11,651.72,64.18,652.16,63.07z M640.8,56.61
	c1.2,0.83,2.07,1.43,2.93,2.02c0.17-0.99,0.34-1.98,0.5-2.97c0.01-0.06-0.1-0.15-0.28-0.39C643.08,55.65,642.17,56.03,640.8,56.61z
	 M640.92,67.6c1.26,0.52,2.19,0.91,3.37,1.4c0-1.14,0.08-1.94-0.02-2.71c-0.11-0.85-0.58-1.16-1.33-0.51
	C642.37,66.26,641.82,66.78,640.92,67.6z"/>
<path d="M747.52,62.06c0.07,5.95-4.89,10.95-10.9,10.99c-5.92,0.04-10.98-4.88-11.04-10.74c-0.07-6.11,4.78-11.11,10.86-11.2
	C742.51,51.03,747.45,55.91,747.52,62.06z M737.52,55.16c0,1.09-0.05,1.89,0.01,2.68c0.07,0.9,0.58,1.13,1.31,0.6
	c0.68-0.49,1.3-1.05,2.25-1.83C739.64,56.03,738.68,55.63,737.52,55.16z M743.49,61.12c-0.49-1.18-0.89-2.13-1.44-3.43
	c-0.77,0.88-1.34,1.46-1.82,2.1c-0.54,0.72-0.36,1.25,0.58,1.32C741.59,61.17,742.39,61.12,743.49,61.12z M743.48,63.07
	c-1.09,0-1.89-0.04-2.68,0.01c-0.94,0.07-1.13,0.58-0.58,1.31c0.5,0.66,1.07,1.26,1.85,2.16C742.64,65.14,743.02,64.21,743.48,63.07
	z M732.22,56.57c0.83,0.76,1.4,1.32,2.01,1.83c0.73,0.6,1.24,0.35,1.33-0.53c0.09-0.79,0.02-1.59,0.02-2.71
	C734.41,55.65,733.45,56.05,732.22,56.57z M729.64,61.12c1.07,0,1.87,0.04,2.66-0.02c0.27-0.02,0.68-0.23,0.74-0.43
	c0.08-0.28-0.04-0.7-0.22-0.95c-0.46-0.65-0.99-1.24-1.73-2.13C730.52,58.99,730.12,59.96,729.64,61.12z M731.04,66.45
	c0.8-0.87,1.37-1.43,1.87-2.06c0.59-0.74,0.31-1.23-0.57-1.31c-0.81-0.07-1.63-0.02-2.72-0.02
	C730.13,64.28,730.52,65.21,731.04,66.45z M732.11,67.6c1.42,0.56,2.34,0.93,3.47,1.38c0-1.08,0.06-1.88-0.02-2.66
	c-0.08-0.89-0.56-1.16-1.31-0.55C733.63,66.26,733.04,66.79,732.11,67.6z M741.06,67.54c-0.9-0.74-1.49-1.27-2.14-1.72
	c-0.25-0.18-0.67-0.29-0.95-0.21c-0.2,0.05-0.41,0.46-0.43,0.73c-0.06,0.79-0.02,1.58-0.02,2.67
	C738.68,68.53,739.64,68.13,741.06,67.54z"/>
<path d="M162,120.97c-0.49,1.67-0.88,3.39-1.52,5c-0.26,0.65-0.98,1.37-1.63,1.56c-2.98,0.84-6.02,1.51-9.28,2.3
	c0.59-5.04-0.61-9.12-4.04-12.38c-2.6-2.46-5.77-3.62-9.32-3.55c-6.69,0.12-14.43,6.13-12.49,16.66c-21.77-0.44-43.5-0.88-65.4-1.32
	c0.47-4.48-0.67-8.33-3.74-11.46c-2.39-2.43-5.37-3.72-8.76-3.86c-3.72-0.15-7.01,1.09-9.69,3.68c-2.63,2.54-3.94,5.73-4.06,9.57
	c-2.92-0.55-5.69-1.16-8.48-1.57c-2.24-0.33-4.22-0.9-5.51-2.98c-1.48-2.4-2.12-4.98-1.61-7.74c0.21-1.13,0.64-2.34,1.34-3.22
	c0.84-1.06,1.11-2.09,1.05-3.37c-0.07-1.89-0.04-3.79-0.01-5.69c0.03-1.68,0.75-2.78,2.31-2.94c9.77-1,18.5-5.34,27.63-8.42
	c14.47-4.87,29.28-6.48,44.41-3.59c4.59,0.87,8.92,2.5,13.16,4.42c6.64,3.02,13.33,5.91,19.93,9.02c2.91,1.37,6.06,1.43,9.06,2.23
	c6.3,1.69,12.61,3.38,18.91,5.1c3.53,0.96,6.13,2.85,6.76,6.76c0.16,1,0.64,1.96,0.98,2.93C162,119.07,162,120.02,162,120.97z
	 M80.96,89.78c-0.03,0.37-0.08,0.52-0.05,0.64c0.92,3.82,1.89,7.62,2.77,11.45c0.2,0.87,0.73,0.83,1.35,0.85
	c7.3,0.21,14.59,0.42,21.89,0.62c0.44,0.01,0.89,0,1.25,0c0.16-1.01,0.17-1.85,0.44-2.58c0.26-0.71,0.81-1.31,1.3-2.08
	C101.36,92.06,91.3,90.57,80.96,89.78z M78.67,102.12c-0.63-3.9-1.22-7.73-1.9-11.55c-0.05-0.3-0.72-0.7-1.1-0.7
	c-4.65-0.02-9.24,0.45-13.81,1.38c-2.4,0.49-3.82,1.67-5.09,3.69c-1.17,1.86-1.51,3.47-0.71,5.5c0.33,0.85,0.65,1.16,1.56,1.19
	c4.97,0.13,9.94,0.34,14.91,0.48C74.5,102.16,76.48,102.12,78.67,102.12z M43.98,101.49c1.72,0,3.38,0.07,5.02-0.04
	c0.56-0.04,1.27-0.38,1.61-0.81c1.65-2.12,3.2-4.33,4.78-6.51c0.19-0.26,0.32-0.57,0.68-1.21c-3.63,1.69-6.89,3.17-10.12,4.74
	C44.27,98.47,43.76,99.53,43.98,101.49z"/>
<path d="M56.21,126.87c0.23,5.84-4.6,10.94-10.57,11.16c-5.96,0.22-11.09-4.54-11.38-10.55c-0.28-5.92,4.53-11.09,10.55-11.36
	C50.94,115.86,55.96,120.59,56.21,126.87z M49.5,121.89c-0.07-0.16-0.13-0.32-0.2-0.48c-0.96-0.39-1.93-0.78-3.1-1.25
	c0,1.1-0.04,1.89,0.02,2.68c0.02,0.26,0.25,0.66,0.46,0.72c0.28,0.08,0.7-0.03,0.95-0.2C48.28,122.91,48.88,122.38,49.5,121.89z
	 M49.59,132.59c-0.82-0.75-1.39-1.31-2.01-1.81c-0.21-0.17-0.64-0.32-0.82-0.21c-0.26,0.14-0.51,0.52-0.54,0.81
	c-0.07,0.77-0.02,1.56-0.02,2.65C47.39,133.52,48.35,133.11,49.59,132.59z M38.35,126.12c1.06,0,1.91,0.06,2.74-0.02
	c0.82-0.08,1.04-0.59,0.53-1.26c-0.52-0.68-1.11-1.31-1.88-2.21C39.17,124.05,38.8,124.99,38.35,126.12z M39.75,131.49
	c0.74-0.84,1.32-1.45,1.85-2.11c0.53-0.65,0.36-1.19-0.47-1.29c-0.85-0.1-1.72-0.02-2.82-0.02
	C38.83,129.28,39.22,130.22,39.75,131.49z M50.98,123.13c-0.19-0.07-0.37-0.14-0.56-0.2c-0.46,0.58-0.96,1.15-1.38,1.76
	c-0.18,0.27-0.36,0.73-0.25,0.97c0.1,0.24,0.57,0.41,0.89,0.44c0.74,0.06,1.48,0.02,2.48,0.02
	C51.71,124.99,51.34,124.06,50.98,123.13z M52.16,128.07c-1.04,0-1.83-0.03-2.63,0.01c-0.99,0.04-1.09,0.59-0.62,1.31
	c0.46,0.7,0.98,1.35,1.47,2.03c0.19-0.12,0.39-0.24,0.58-0.36C51.35,130.11,51.72,129.18,52.16,128.07z M40.8,121.61
	c1.2,0.83,2.07,1.43,2.93,2.02c0.17-0.99,0.34-1.98,0.5-2.97c0.01-0.06-0.1-0.15-0.28-0.39C43.08,120.65,42.17,121.03,40.8,121.61z
	 M40.92,132.6c1.26,0.52,2.19,0.91,3.37,1.4c0-1.14,0.08-1.94-0.02-2.71c-0.11-0.85-0.58-1.16-1.33-0.51
	C42.37,131.26,41.82,131.78,40.92,132.6z"/>
<path d="M147.52,127.06c0.07,5.95-4.89,10.95-10.9,10.99c-5.92,0.04-10.98-4.88-11.04-10.74c-0.07-6.11,4.78-11.11,10.86-11.2
	C142.51,116.03,147.45,120.91,147.52,127.06z M137.52,120.16c0,1.09-0.05,1.89,0.01,2.68c0.07,0.9,0.58,1.13,1.31,0.6
	c0.68-0.49,1.3-1.05,2.25-1.83C139.64,121.03,138.68,120.63,137.52,120.16z M143.49,126.12c-0.49-1.18-0.89-2.13-1.44-3.43
	c-0.77,0.88-1.34,1.46-1.82,2.1c-0.54,0.72-0.36,1.25,0.58,1.32C141.59,126.17,142.39,126.12,143.49,126.12z M143.48,128.07
	c-1.09,0-1.89-0.04-2.68,0.01c-0.94,0.07-1.13,0.58-0.58,1.31c0.5,0.66,1.07,1.26,1.85,2.16
	C142.64,130.14,143.02,129.21,143.48,128.07z M132.22,121.57c0.83,0.76,1.4,1.32,2.01,1.83c0.73,0.6,1.24,0.35,1.33-0.53
	c0.09-0.79,0.02-1.59,0.02-2.71C134.41,120.65,133.45,121.05,132.22,121.57z M129.64,126.12c1.07,0,1.87,0.04,2.66-0.02
	c0.27-0.02,0.68-0.23,0.74-0.43c0.08-0.28-0.04-0.7-0.22-0.95c-0.46-0.65-0.99-1.24-1.73-2.13
	C130.52,123.99,130.12,124.96,129.64,126.12z M131.04,131.45c0.8-0.87,1.37-1.43,1.87-2.06c0.59-0.74,0.31-1.23-0.57-1.31
	c-0.81-0.07-1.63-0.02-2.72-0.02C130.13,129.28,130.52,130.21,131.04,131.45z M132.11,132.6c1.42,0.56,2.34,0.93,3.47,1.38
	c0-1.08,0.06-1.88-0.02-2.66c-0.08-0.89-0.56-1.16-1.31-0.55C133.63,131.26,133.04,131.79,132.11,132.6z M141.06,132.54
	c-0.9-0.74-1.49-1.27-2.14-1.72c-0.25-0.18-0.67-0.29-0.95-0.21c-0.2,0.05-0.41,0.46-0.43,0.73c-0.06,0.79-0.02,1.58-0.02,2.67
	C138.68,133.53,139.64,133.13,141.06,132.54z"/>
<path d="M312,124.97c-0.49,1.67-0.88,3.39-1.52,5c-0.26,0.65-0.98,1.37-1.63,1.56c-2.98,0.84-6.02,1.51-9.28,2.3
	c0.59-5.04-0.61-9.12-4.04-12.38c-2.6-2.46-5.77-3.62-9.32-3.55c-6.69,0.12-14.43,6.13-12.49,16.66c-21.77-0.44-43.5-0.88-65.4-1.32
	c0.47-4.48-0.67-8.33-3.74-11.46c-2.39-2.43-5.37-3.72-8.76-3.86c-3.72-0.15-7.01,1.09-9.69,3.68c-2.63,2.54-3.94,5.73-4.06,9.57
	c-2.92-0.55-5.69-1.16-8.48-1.57c-2.24-0.33-4.22-0.9-5.51-2.98c-1.48-2.4-2.12-4.98-1.61-7.74c0.21-1.13,0.64-2.34,1.34-3.22
	c0.84-1.06,1.11-2.09,1.05-3.37c-0.07-1.89-0.04-3.79-0.01-5.69c0.03-1.68,0.75-2.78,2.31-2.94c9.77-1,18.5-5.34,27.63-8.42
	c14.47-4.87,29.28-6.48,44.41-3.59c4.59,0.87,8.92,2.5,13.16,4.42c6.64,3.02,13.33,5.91,19.93,9.02c2.91,1.37,6.06,1.43,9.06,2.23
	c6.3,1.69,12.61,3.38,18.91,5.1c3.53,0.96,6.13,2.85,6.76,6.76c0.16,1,0.64,1.96,0.98,2.93C312,123.07,312,124.02,312,124.97z
	 M230.96,93.78c-0.03,0.37-0.08,0.52-0.05,0.64c0.92,3.82,1.89,7.62,2.77,11.45c0.2,0.87,0.73,0.83,1.35,0.85
	c7.3,0.21,14.59,0.42,21.89,0.62c0.44,0.01,0.89,0,1.25,0c0.16-1.01,0.17-1.85,0.44-2.58c0.26-0.71,0.81-1.31,1.3-2.08
	C251.36,96.06,241.3,94.57,230.96,93.78z M228.67,106.12c-0.63-3.9-1.22-7.73-1.9-11.55c-0.05-0.3-0.72-0.7-1.1-0.7
	c-4.65-0.02-9.24,0.45-13.81,1.38c-2.4,0.49-3.82,1.67-5.09,3.69c-1.17,1.86-1.51,3.47-0.71,5.5c0.33,0.85,0.65,1.16,1.56,1.19
	c4.97,0.13,9.94,0.34,14.91,0.48C224.5,106.16,226.48,106.12,228.67,106.12z M193.98,105.49c1.72,0,3.38,0.07,5.02-0.04
	c0.56-0.04,1.27-0.38,1.61-0.81c1.65-2.12,3.2-4.33,4.78-6.51c0.19-0.26,0.32-0.57,0.68-1.21c-3.63,1.69-6.89,3.17-10.12,4.74
	C194.27,102.47,193.76,103.53,193.98,105.49z"/>
<path d="M206.21,130.87c0.23,5.84-4.6,10.94-10.57,11.16c-5.96,0.22-11.09-4.54-11.38-10.55c-0.28-5.92,4.53-11.09,10.55-11.36
	C200.94,119.86,205.96,124.59,206.21,130.87z M199.5,125.89c-0.07-0.16-0.13-0.32-0.2-0.48c-0.96-0.39-1.93-0.78-3.1-1.25
	c0,1.1-0.04,1.89,0.02,2.68c0.02,0.26,0.25,0.66,0.46,0.72c0.28,0.08,0.7-0.03,0.95-0.2C198.28,126.91,198.88,126.38,199.5,125.89z
	 M199.59,136.59c-0.82-0.75-1.39-1.31-2.01-1.81c-0.21-0.17-0.64-0.32-0.82-0.21c-0.26,0.14-0.51,0.52-0.54,0.81
	c-0.07,0.77-0.02,1.56-0.02,2.65C197.39,137.52,198.35,137.11,199.59,136.59z M188.35,130.12c1.06,0,1.91,0.06,2.74-0.02
	c0.82-0.08,1.04-0.59,0.53-1.26c-0.52-0.68-1.11-1.31-1.88-2.21C189.17,128.05,188.8,128.99,188.35,130.12z M189.75,135.49
	c0.74-0.84,1.32-1.45,1.85-2.11c0.53-0.65,0.36-1.19-0.47-1.29c-0.85-0.1-1.72-0.02-2.82-0.02
	C188.83,133.28,189.22,134.22,189.75,135.49z M200.98,127.13c-0.19-0.07-0.37-0.14-0.56-0.2c-0.46,0.58-0.96,1.15-1.38,1.76
	c-0.18,0.27-0.36,0.73-0.25,0.97c0.1,0.24,0.57,0.41,0.89,0.44c0.74,0.06,1.48,0.02,2.48,0.02
	C201.71,128.99,201.34,128.06,200.98,127.13z M202.16,132.07c-1.04,0-1.83-0.03-2.63,0.01c-0.99,0.04-1.09,0.59-0.62,1.31
	c0.46,0.7,0.98,1.35,1.47,2.03c0.19-0.12,0.39-0.24,0.58-0.36C201.35,134.11,201.72,133.18,202.16,132.07z M190.8,125.61
	c1.2,0.83,2.07,1.43,2.93,2.02c0.17-0.99,0.34-1.98,0.5-2.97c0.01-0.06-0.1-0.15-0.28-0.39
	C193.08,124.65,192.17,125.03,190.8,125.61z M190.92,136.6c1.26,0.52,2.19,0.91,3.37,1.4c0-1.14,0.08-1.94-0.02-2.71
	c-0.11-0.85-0.58-1.16-1.33-0.51C192.37,135.26,191.82,135.78,190.92,136.6z"/>
<path d="M297.52,131.06c0.07,5.95-4.89,10.95-10.9,10.99c-5.92,0.04-10.98-4.88-11.04-10.74c-0.07-6.11,4.78-11.11,10.86-11.2
	C292.51,120.03,297.45,124.91,297.52,131.06z M287.52,124.16c0,1.09-0.05,1.89,0.01,2.68c0.07,0.9,0.58,1.13,1.31,0.6
	c0.68-0.49,1.3-1.05,2.25-1.83C289.64,125.03,288.68,124.63,287.52,124.16z M293.49,130.12c-0.49-1.18-0.89-2.13-1.44-3.43
	c-0.77,0.88-1.34,1.46-1.82,2.1c-0.54,0.72-0.36,1.25,0.58,1.32C291.59,130.17,292.39,130.12,293.49,130.12z M293.48,132.07
	c-1.09,0-1.89-0.04-2.68,0.01c-0.94,0.07-1.13,0.58-0.58,1.31c0.5,0.66,1.07,1.26,1.85,2.16
	C292.64,134.14,293.02,133.21,293.48,132.07z M282.22,125.57c0.83,0.76,1.4,1.32,2.01,1.83c0.73,0.6,1.24,0.35,1.33-0.53
	c0.09-0.79,0.02-1.59,0.02-2.71C284.41,124.65,283.45,125.05,282.22,125.57z M279.64,130.12c1.07,0,1.87,0.04,2.66-0.02
	c0.27-0.02,0.68-0.23,0.74-0.43c0.08-0.28-0.04-0.7-0.22-0.95c-0.46-0.65-0.99-1.24-1.73-2.13
	C280.52,127.99,280.12,128.96,279.64,130.12z M281.04,135.45c0.8-0.87,1.37-1.43,1.87-2.06c0.59-0.74,0.31-1.23-0.57-1.31
	c-0.81-0.07-1.63-0.02-2.72-0.02C280.13,133.28,280.52,134.21,281.04,135.45z M282.11,136.6c1.42,0.56,2.34,0.93,3.47,1.38
	c0-1.08,0.06-1.88-0.02-2.66c-0.08-0.89-0.56-1.16-1.31-0.55C283.63,135.26,283.04,135.79,282.11,136.6z M291.06,136.54
	c-0.9-0.74-1.49-1.27-2.14-1.72c-0.25-0.18-0.67-0.29-0.95-0.21c-0.2,0.05-0.41,0.46-0.43,0.73c-0.06,0.79-0.02,1.58-0.02,2.67
	C288.68,137.53,289.64,137.13,291.06,136.54z"/>
<path d="M462,124.97c-0.49,1.67-0.88,3.39-1.52,5c-0.26,0.65-0.98,1.37-1.63,1.56c-2.98,0.84-6.02,1.51-9.28,2.3
	c0.59-5.04-0.61-9.12-4.04-12.38c-2.6-2.46-5.77-3.62-9.32-3.55c-6.69,0.12-14.43,6.13-12.49,16.66c-21.77-0.44-43.5-0.88-65.4-1.32
	c0.47-4.48-0.67-8.33-3.74-11.46c-2.39-2.43-5.37-3.72-8.76-3.86c-3.72-0.15-7.01,1.09-9.69,3.68c-2.63,2.54-3.94,5.73-4.06,9.57
	c-2.92-0.55-5.69-1.16-8.48-1.57c-2.24-0.33-4.22-0.9-5.51-2.98c-1.48-2.4-2.12-4.98-1.61-7.74c0.21-1.13,0.64-2.34,1.34-3.22
	c0.84-1.06,1.11-2.09,1.05-3.37c-0.07-1.89-0.04-3.79-0.01-5.69c0.03-1.68,0.75-2.78,2.31-2.94c9.77-1,18.5-5.34,27.63-8.42
	c14.47-4.87,29.28-6.48,44.41-3.59c4.59,0.87,8.92,2.5,13.16,4.42c6.64,3.02,13.33,5.91,19.93,9.02c2.91,1.37,6.06,1.43,9.06,2.23
	c6.3,1.69,12.61,3.38,18.91,5.1c3.53,0.96,6.13,2.85,6.76,6.76c0.16,1,0.64,1.96,0.98,2.93C462,123.07,462,124.02,462,124.97z
	 M380.96,93.78c-0.03,0.37-0.08,0.52-0.05,0.64c0.92,3.82,1.89,7.62,2.77,11.45c0.2,0.87,0.73,0.83,1.35,0.85
	c7.3,0.21,14.59,0.42,21.89,0.62c0.44,0.01,0.89,0,1.25,0c0.16-1.01,0.17-1.85,0.44-2.58c0.26-0.71,0.81-1.31,1.3-2.08
	C401.36,96.06,391.3,94.57,380.96,93.78z M378.67,106.12c-0.63-3.9-1.22-7.73-1.9-11.55c-0.05-0.3-0.72-0.7-1.1-0.7
	c-4.65-0.02-9.24,0.45-13.81,1.38c-2.4,0.49-3.82,1.67-5.09,3.69c-1.17,1.86-1.51,3.47-0.71,5.5c0.33,0.85,0.65,1.16,1.56,1.19
	c4.97,0.13,9.94,0.34,14.91,0.48C374.5,106.16,376.48,106.12,378.67,106.12z M343.98,105.49c1.72,0,3.38,0.07,5.02-0.04
	c0.56-0.04,1.27-0.38,1.61-0.81c1.65-2.12,3.2-4.33,4.78-6.51c0.19-0.26,0.32-0.57,0.68-1.21c-3.63,1.69-6.89,3.17-10.12,4.74
	C344.27,102.47,343.76,103.53,343.98,105.49z"/>
<path d="M356.21,130.87c0.23,5.84-4.6,10.94-10.57,11.16c-5.96,0.22-11.09-4.54-11.38-10.55c-0.28-5.92,4.53-11.09,10.55-11.36
	C350.94,119.86,355.96,124.59,356.21,130.87z M349.5,125.89c-0.07-0.16-0.13-0.32-0.2-0.48c-0.96-0.39-1.93-0.78-3.1-1.25
	c0,1.1-0.04,1.89,0.02,2.68c0.02,0.26,0.25,0.66,0.46,0.72c0.28,0.08,0.7-0.03,0.95-0.2C348.28,126.91,348.88,126.38,349.5,125.89z
	 M349.59,136.59c-0.82-0.75-1.39-1.31-2.01-1.81c-0.21-0.17-0.64-0.32-0.82-0.21c-0.26,0.14-0.51,0.52-0.54,0.81
	c-0.07,0.77-0.02,1.56-0.02,2.65C347.39,137.52,348.35,137.11,349.59,136.59z M338.35,130.12c1.06,0,1.91,0.06,2.74-0.02
	c0.82-0.08,1.04-0.59,0.53-1.26c-0.52-0.68-1.11-1.31-1.88-2.21C339.17,128.05,338.8,128.99,338.35,130.12z M339.75,135.49
	c0.74-0.84,1.32-1.45,1.85-2.11c0.53-0.65,0.36-1.19-0.47-1.29c-0.85-0.1-1.72-0.02-2.82-0.02
	C338.83,133.28,339.22,134.22,339.75,135.49z M350.98,127.13c-0.19-0.07-0.37-0.14-0.56-0.2c-0.46,0.58-0.96,1.15-1.38,1.76
	c-0.18,0.27-0.36,0.73-0.25,0.97c0.1,0.24,0.57,0.41,0.89,0.44c0.74,0.06,1.48,0.02,2.48,0.02
	C351.71,128.99,351.34,128.06,350.98,127.13z M352.16,132.07c-1.04,0-1.83-0.03-2.63,0.01c-0.99,0.04-1.09,0.59-0.62,1.31
	c0.46,0.7,0.98,1.35,1.47,2.03c0.19-0.12,0.39-0.24,0.58-0.36C351.35,134.11,351.72,133.18,352.16,132.07z M340.8,125.61
	c1.2,0.83,2.07,1.43,2.93,2.02c0.17-0.99,0.34-1.98,0.5-2.97c0.01-0.06-0.1-0.15-0.28-0.39
	C343.08,124.65,342.17,125.03,340.8,125.61z M340.92,136.6c1.26,0.52,2.19,0.91,3.37,1.4c0-1.14,0.08-1.94-0.02-2.71
	c-0.11-0.85-0.58-1.16-1.33-0.51C342.37,135.26,341.82,135.78,340.92,136.6z"/>
<path d="M447.52,131.06c0.07,5.95-4.89,10.95-10.9,10.99c-5.92,0.04-10.98-4.88-11.04-10.74c-0.07-6.11,4.78-11.11,10.86-11.2
	C442.51,120.03,447.45,124.91,447.52,131.06z M437.52,124.16c0,1.09-0.05,1.89,0.01,2.68c0.07,0.9,0.58,1.13,1.31,0.6
	c0.68-0.49,1.3-1.05,2.25-1.83C439.64,125.03,438.68,124.63,437.52,124.16z M443.49,130.12c-0.49-1.18-0.89-2.13-1.44-3.43
	c-0.77,0.88-1.34,1.46-1.82,2.1c-0.54,0.72-0.36,1.25,0.58,1.32C441.59,130.17,442.39,130.12,443.49,130.12z M443.48,132.07
	c-1.09,0-1.89-0.04-2.68,0.01c-0.94,0.07-1.13,0.58-0.58,1.31c0.5,0.66,1.07,1.26,1.85,2.16
	C442.64,134.14,443.02,133.21,443.48,132.07z M432.22,125.57c0.83,0.76,1.4,1.32,2.01,1.83c0.73,0.6,1.24,0.35,1.33-0.53
	c0.09-0.79,0.02-1.59,0.02-2.71C434.41,124.65,433.45,125.05,432.22,125.57z M429.64,130.12c1.07,0,1.87,0.04,2.66-0.02
	c0.27-0.02,0.68-0.23,0.74-0.43c0.08-0.28-0.04-0.7-0.22-0.95c-0.46-0.65-0.99-1.24-1.73-2.13
	C430.52,127.99,430.12,128.96,429.64,130.12z M431.04,135.45c0.8-0.87,1.37-1.43,1.87-2.06c0.59-0.74,0.31-1.23-0.57-1.31
	c-0.81-0.07-1.63-0.02-2.72-0.02C430.13,133.28,430.52,134.21,431.04,135.45z M432.11,136.6c1.42,0.56,2.34,0.93,3.47,1.38
	c0-1.08,0.06-1.88-0.02-2.66c-0.08-0.89-0.56-1.16-1.31-0.55C433.63,135.26,433.04,135.79,432.11,136.6z M441.06,136.54
	c-0.9-0.74-1.49-1.27-2.14-1.72c-0.25-0.18-0.67-0.29-0.95-0.21c-0.2,0.05-0.41,0.46-0.43,0.73c-0.06,0.79-0.02,1.58-0.02,2.67
	C438.68,137.53,439.64,137.13,441.06,136.54z"/>
<path d="M612,128.97c-0.49,1.67-0.88,3.39-1.52,5c-0.26,0.65-0.98,1.37-1.63,1.56c-2.98,0.84-6.02,1.51-9.28,2.3
	c0.59-5.04-0.61-9.12-4.04-12.38c-2.6-2.46-5.77-3.62-9.32-3.55c-6.69,0.12-14.43,6.13-12.49,16.66c-21.77-0.44-43.5-0.88-65.4-1.32
	c0.47-4.48-0.67-8.33-3.74-11.46c-2.39-2.43-5.37-3.72-8.76-3.86c-3.72-0.15-7.01,1.09-9.69,3.68c-2.63,2.54-3.94,5.73-4.06,9.57
	c-2.92-0.55-5.69-1.16-8.48-1.57c-2.24-0.33-4.22-0.9-5.51-2.98c-1.48-2.4-2.12-4.98-1.61-7.74c0.21-1.13,0.64-2.34,1.34-3.22
	c0.84-1.06,1.11-2.09,1.05-3.37c-0.07-1.89-0.04-3.79-0.01-5.69c0.03-1.68,0.75-2.78,2.31-2.94c9.77-1,18.5-5.34,27.63-8.42
	c14.47-4.87,29.28-6.48,44.41-3.59c4.59,0.87,8.92,2.5,13.16,4.42c6.64,3.02,13.33,5.91,19.93,9.02c2.91,1.37,6.06,1.43,9.06,2.23
	c6.3,1.69,12.61,3.38,18.91,5.1c3.53,0.96,6.13,2.85,6.76,6.76c0.16,1,0.64,1.96,0.98,2.93C612,127.07,612,128.02,612,128.97z
	 M530.96,97.78c-0.03,0.37-0.08,0.52-0.05,0.64c0.92,3.82,1.89,7.62,2.77,11.45c0.2,0.87,0.73,0.83,1.35,0.85
	c7.3,0.21,14.59,0.42,21.89,0.62c0.44,0.01,0.89,0,1.25,0c0.16-1.01,0.17-1.85,0.44-2.58c0.27-0.71,0.81-1.31,1.3-2.08
	C551.36,100.06,541.3,98.57,530.96,97.78z M528.67,110.12c-0.63-3.9-1.22-7.73-1.9-11.55c-0.05-0.3-0.72-0.7-1.1-0.7
	c-4.65-0.02-9.24,0.45-13.81,1.38c-2.4,0.49-3.82,1.67-5.09,3.69c-1.17,1.86-1.51,3.47-0.71,5.5c0.33,0.85,0.65,1.16,1.56,1.19
	c4.97,0.13,9.94,0.34,14.91,0.48C524.5,110.16,526.48,110.12,528.67,110.12z M493.98,109.49c1.72,0,3.38,0.07,5.02-0.04
	c0.56-0.04,1.27-0.38,1.61-0.81c1.65-2.12,3.2-4.33,4.78-6.51c0.19-0.26,0.32-0.57,0.68-1.21c-3.63,1.69-6.89,3.17-10.12,4.74
	C494.27,106.47,493.76,107.53,493.98,109.49z"/>
<path d="M506.21,134.87c0.23,5.84-4.6,10.94-10.57,11.16c-5.96,0.22-11.09-4.54-11.38-10.55c-0.28-5.92,4.53-11.09,10.55-11.36
	C500.94,123.86,505.96,128.59,506.21,134.87z M499.5,129.89c-0.07-0.16-0.13-0.32-0.2-0.48c-0.96-0.39-1.93-0.78-3.1-1.25
	c0,1.1-0.04,1.89,0.02,2.68c0.02,0.26,0.25,0.66,0.46,0.72c0.28,0.08,0.7-0.03,0.95-0.2C498.28,130.91,498.88,130.38,499.5,129.89z
	 M499.59,140.59c-0.82-0.75-1.39-1.31-2.01-1.81c-0.21-0.17-0.64-0.32-0.82-0.21c-0.26,0.14-0.51,0.52-0.54,0.81
	c-0.07,0.77-0.02,1.56-0.02,2.65C497.39,141.52,498.35,141.11,499.59,140.59z M488.35,134.12c1.06,0,1.91,0.06,2.74-0.02
	c0.82-0.08,1.04-0.59,0.53-1.26c-0.52-0.68-1.11-1.31-1.88-2.21C489.17,132.05,488.8,132.99,488.35,134.12z M489.75,139.49
	c0.74-0.84,1.32-1.45,1.85-2.11c0.53-0.65,0.36-1.19-0.47-1.29c-0.85-0.1-1.72-0.02-2.82-0.02
	C488.83,137.28,489.22,138.22,489.75,139.49z M500.98,131.13c-0.19-0.07-0.37-0.14-0.56-0.2c-0.46,0.58-0.96,1.15-1.38,1.76
	c-0.18,0.27-0.36,0.73-0.25,0.97c0.1,0.24,0.57,0.41,0.89,0.44c0.74,0.06,1.48,0.02,2.48,0.02
	C501.71,132.99,501.34,132.06,500.98,131.13z M502.16,136.07c-1.04,0-1.83-0.03-2.63,0.01c-0.99,0.04-1.09,0.59-0.62,1.31
	c0.46,0.7,0.98,1.35,1.47,2.03c0.19-0.12,0.39-0.24,0.58-0.36C501.35,138.11,501.72,137.18,502.16,136.07z M490.8,129.61
	c1.2,0.83,2.07,1.43,2.93,2.02c0.17-0.99,0.34-1.98,0.5-2.97c0.01-0.06-0.1-0.15-0.28-0.39
	C493.08,128.65,492.17,129.03,490.8,129.61z M490.92,140.6c1.26,0.52,2.19,0.91,3.37,1.4c0-1.14,0.08-1.94-0.02-2.71
	c-0.11-0.85-0.58-1.16-1.33-0.51C492.37,139.26,491.82,139.78,490.92,140.6z"/>
<path d="M597.52,135.06c0.07,5.95-4.89,10.95-10.9,10.99c-5.92,0.04-10.98-4.88-11.04-10.74c-0.07-6.11,4.78-11.11,10.86-11.2
	C592.51,124.03,597.45,128.91,597.52,135.06z M587.52,128.16c0,1.09-0.05,1.89,0.01,2.68c0.07,0.9,0.58,1.13,1.31,0.6
	c0.68-0.49,1.3-1.05,2.25-1.83C589.64,129.03,588.68,128.63,587.52,128.16z M593.49,134.12c-0.49-1.18-0.89-2.13-1.44-3.43
	c-0.77,0.88-1.34,1.46-1.82,2.1c-0.54,0.72-0.36,1.25,0.58,1.32C591.59,134.17,592.39,134.12,593.49,134.12z M593.48,136.07
	c-1.09,0-1.89-0.04-2.68,0.01c-0.94,0.07-1.13,0.58-0.58,1.31c0.5,0.66,1.07,1.26,1.85,2.16
	C592.64,138.14,593.02,137.21,593.48,136.07z M582.22,129.57c0.83,0.76,1.4,1.32,2.01,1.83c0.73,0.6,1.24,0.35,1.33-0.53
	c0.09-0.79,0.02-1.59,0.02-2.71C584.41,128.65,583.45,129.05,582.22,129.57z M579.64,134.12c1.07,0,1.87,0.04,2.66-0.02
	c0.27-0.02,0.68-0.23,0.74-0.43c0.08-0.28-0.04-0.7-0.22-0.95c-0.46-0.65-0.99-1.24-1.73-2.13
	C580.52,131.99,580.12,132.96,579.64,134.12z M581.04,139.45c0.8-0.87,1.37-1.43,1.87-2.06c0.59-0.74,0.31-1.23-0.57-1.31
	c-0.81-0.07-1.63-0.02-2.72-0.02C580.13,137.28,580.52,138.21,581.04,139.45z M582.11,140.6c1.42,0.56,2.34,0.93,3.47,1.38
	c0-1.08,0.06-1.88-0.02-2.66c-0.08-0.89-0.56-1.16-1.31-0.55C583.63,139.26,583.04,139.79,582.11,140.6z M591.06,140.54
	c-0.9-0.74-1.49-1.27-2.14-1.72c-0.25-0.18-0.67-0.29-0.95-0.21c-0.2,0.05-0.41,0.46-0.43,0.73c-0.06,0.79-0.02,1.58-0.02,2.67
	C588.68,141.53,589.64,141.13,591.06,140.54z"/>
<path class="st0" d="M762,131.97c-0.49,1.67-0.88,3.39-1.52,5c-0.26,0.65-0.98,1.37-1.63,1.56c-2.98,0.84-6.02,1.51-9.28,2.3
	c0.59-5.04-0.61-9.12-4.04-12.38c-2.6-2.46-5.77-3.62-9.32-3.55c-6.69,0.12-14.43,6.13-12.49,16.66c-21.77-0.44-43.5-0.88-65.4-1.32
	c0.47-4.48-0.67-8.33-3.74-11.46c-2.39-2.43-5.37-3.72-8.76-3.86c-3.72-0.15-7.01,1.09-9.69,3.68c-2.63,2.54-3.94,5.73-4.06,9.57
	c-2.92-0.55-5.69-1.16-8.48-1.57c-2.24-0.33-4.22-0.9-5.51-2.98c-1.48-2.4-2.12-4.98-1.61-7.74c0.21-1.13,0.64-2.34,1.34-3.22
	c0.84-1.06,1.11-2.09,1.05-3.37c-0.07-1.89-0.04-3.79-0.01-5.69c0.03-1.68,0.75-2.78,2.31-2.94c9.77-1,18.5-5.34,27.63-8.42
	c14.47-4.87,29.28-6.48,44.41-3.59c4.59,0.87,8.92,2.5,13.16,4.42c6.64,3.02,13.33,5.91,19.93,9.02c2.91,1.37,6.06,1.43,9.06,2.23
	c6.3,1.69,12.61,3.38,18.91,5.1c3.53,0.96,6.13,2.85,6.76,6.76c0.16,1,0.64,1.96,0.98,2.93C762,130.07,762,131.02,762,131.97z
	 M680.96,100.78c-0.03,0.37-0.08,0.52-0.05,0.64c0.92,3.82,1.89,7.62,2.77,11.45c0.2,0.87,0.73,0.83,1.35,0.85
	c7.3,0.21,14.59,0.42,21.89,0.62c0.44,0.01,0.89,0,1.25,0c0.16-1.01,0.17-1.85,0.44-2.58c0.27-0.71,0.81-1.31,1.3-2.08
	C701.36,103.06,691.3,101.57,680.96,100.78z M678.67,113.12c-0.63-3.9-1.22-7.73-1.9-11.55c-0.05-0.3-0.72-0.7-1.1-0.7
	c-4.65-0.02-9.24,0.45-13.81,1.38c-2.4,0.49-3.82,1.67-5.09,3.69c-1.17,1.86-1.51,3.47-0.71,5.5c0.33,0.85,0.65,1.16,1.56,1.19
	c4.97,0.13,9.94,0.34,14.91,0.48C674.5,113.16,676.48,113.12,678.67,113.12z M643.98,112.49c1.72,0,3.38,0.07,5.02-0.04
	c0.56-0.04,1.27-0.38,1.61-0.81c1.65-2.12,3.2-4.33,4.78-6.51c0.19-0.26,0.32-0.57,0.68-1.21c-3.63,1.69-6.89,3.17-10.12,4.74
	C644.27,109.47,643.76,110.53,643.98,112.49z"/>
<path class="st0" d="M656.21,137.87c0.23,5.84-4.6,10.94-10.57,11.16c-5.96,0.22-11.09-4.54-11.38-10.55
	c-0.28-5.92,4.53-11.09,10.55-11.36C650.94,126.86,655.96,131.59,656.21,137.87z M649.5,132.89c-0.07-0.16-0.13-0.32-0.2-0.48
	c-0.96-0.39-1.93-0.78-3.1-1.25c0,1.1-0.04,1.89,0.02,2.68c0.02,0.26,0.25,0.66,0.46,0.72c0.28,0.08,0.7-0.03,0.95-0.2
	C648.28,133.91,648.88,133.38,649.5,132.89z M649.59,143.59c-0.82-0.75-1.39-1.31-2.01-1.81c-0.21-0.17-0.64-0.32-0.82-0.21
	c-0.26,0.14-0.51,0.52-0.54,0.81c-0.07,0.77-0.02,1.56-0.02,2.65C647.39,144.52,648.35,144.11,649.59,143.59z M638.35,137.12
	c1.06,0,1.91,0.06,2.74-0.02c0.82-0.08,1.04-0.59,0.53-1.26c-0.52-0.68-1.11-1.31-1.88-2.21
	C639.17,135.05,638.8,135.99,638.35,137.12z M639.75,142.49c0.74-0.84,1.32-1.45,1.85-2.11c0.53-0.65,0.36-1.19-0.47-1.29
	c-0.85-0.1-1.72-0.02-2.82-0.02C638.83,140.28,639.22,141.22,639.75,142.49z M650.98,134.13c-0.19-0.07-0.38-0.14-0.56-0.2
	c-0.46,0.58-0.96,1.15-1.38,1.76c-0.18,0.27-0.36,0.73-0.25,0.97c0.1,0.24,0.57,0.41,0.89,0.44c0.74,0.06,1.48,0.02,2.48,0.02
	C651.71,135.99,651.34,135.06,650.98,134.13z M652.16,139.07c-1.04,0-1.83-0.03-2.63,0.01c-0.99,0.04-1.09,0.59-0.62,1.31
	c0.46,0.7,0.98,1.35,1.47,2.03c0.19-0.12,0.39-0.24,0.58-0.36C651.35,141.11,651.72,140.18,652.16,139.07z M640.8,132.61
	c1.2,0.83,2.07,1.43,2.93,2.02c0.17-0.99,0.34-1.98,0.5-2.97c0.01-0.06-0.1-0.15-0.28-0.39
	C643.08,131.65,642.17,132.03,640.8,132.61z M640.92,143.6c1.26,0.52,2.19,0.91,3.37,1.4c0-1.14,0.08-1.94-0.02-2.71
	c-0.11-0.85-0.58-1.16-1.33-0.51C642.37,142.26,641.82,142.78,640.92,143.6z"/>
<path class="st0" d="M747.52,138.06c0.07,5.95-4.89,10.95-10.9,10.99c-5.92,0.04-10.98-4.88-11.04-10.74
	c-0.07-6.11,4.78-11.11,10.86-11.2C742.51,127.03,747.45,131.91,747.52,138.06z M737.52,131.16c0,1.09-0.05,1.89,0.01,2.68
	c0.07,0.9,0.58,1.13,1.31,0.6c0.68-0.49,1.3-1.05,2.25-1.83C739.64,132.03,738.68,131.63,737.52,131.16z M743.49,137.12
	c-0.49-1.18-0.89-2.13-1.44-3.43c-0.77,0.88-1.34,1.46-1.82,2.1c-0.54,0.72-0.36,1.25,0.58,1.32
	C741.59,137.17,742.39,137.12,743.49,137.12z M743.48,139.07c-1.09,0-1.89-0.04-2.68,0.01c-0.94,0.07-1.13,0.58-0.58,1.31
	c0.5,0.66,1.07,1.26,1.85,2.16C742.64,141.14,743.02,140.21,743.48,139.07z M732.22,132.57c0.83,0.76,1.4,1.32,2.01,1.83
	c0.73,0.6,1.24,0.35,1.33-0.53c0.09-0.79,0.02-1.59,0.02-2.71C734.41,131.65,733.45,132.05,732.22,132.57z M729.64,137.12
	c1.07,0,1.87,0.04,2.66-0.02c0.27-0.02,0.68-0.23,0.74-0.43c0.08-0.28-0.04-0.7-0.22-0.95c-0.46-0.65-0.99-1.24-1.73-2.13
	C730.52,134.99,730.12,135.96,729.64,137.12z M731.04,142.45c0.8-0.87,1.37-1.43,1.87-2.06c0.59-0.74,0.31-1.23-0.57-1.31
	c-0.81-0.07-1.63-0.02-2.72-0.02C730.13,140.28,730.52,141.21,731.04,142.45z M732.11,143.6c1.42,0.56,2.34,0.93,3.47,1.38
	c0-1.08,0.06-1.88-0.02-2.66c-0.08-0.89-0.56-1.16-1.31-0.55C733.63,142.26,733.04,142.79,732.11,143.6z M741.06,143.54
	c-0.9-0.74-1.49-1.27-2.14-1.72c-0.25-0.18-0.67-0.29-0.95-0.21c-0.2,0.05-0.41,0.46-0.43,0.73c-0.06,0.79-0.02,1.58-0.02,2.67
	C738.68,144.53,739.64,144.13,741.06,143.54z"/>
</svg>
