<?xml version="1.0"?><svg width="744.09448" height="1052.3622" xmlns="http://www.w3.org/2000/svg">
 <title>netherlands map</title>

 <g>
  <title>Layer 1</title>
  <g display="inline" id="layer5">
   <path fill="#999999" fill-rule="evenodd" stroke="#000000" stroke-width="0.86702509pt" id="path3208" d="m506.518677,587.668274c0.681213,1.395203 3.792053,3.651184 6.7771,4.776794c2.985046,1.12561 6.120483,2.501404 7.851746,4.925354c1.731262,2.424011 2.05835,5.896118 -0.573303,11.214355c22.64801,4.468201 9.79718,36.501892 34.157288,48.170593c8.590576,36.319824 -4.465637,61.944824 -27.169067,87.136963c-5.51825,15.623535 9.044556,19.633423 21.476135,12.707275c-2.983459,18.314087 -33.890259,25.006958 -43.904785,44.435791c-19.274292,-24.12085 -13.991882,36.989502 2.740906,16.434326c18.810547,-1.325073 3.56189,24.348389 26.950684,22.197266c-6.186157,8.812988 0.419067,21.228394 -15.204346,25.245483c-0.625061,10.668457 -24.083496,8.438232 -0.788574,17.314575c2.574402,12.669556 -35.407776,-0.878662 -45.115051,2.243408c-0.066528,-14.305908 -29.389404,15.717041 -17.032715,-10.093506c-27.067017,-20.976318 9.624207,-38.145508 9.939575,-60.973022c-9.159241,-21.384399 21.551147,-26.739014 7.09314,-39.725708c2.563477,-2.40918 3.752197,-4.351807 3.871643,-5.9646c0.119507,-1.612549 -0.830261,-2.895264 -2.54364,-3.984375c-1.713379,-1.088989 -4.19043,-1.984375 -7.125488,-2.82251c-2.93512,-0.838135 -6.328247,-1.619019 -9.873901,-2.479004c-3.545654,-0.860107 -7.243774,-1.799194 -10.788696,-2.953857c-3.545044,-1.154785 -6.936951,-2.524902 -9.870239,-4.24707c-2.933228,-1.722168 -5.407715,-3.796143 -6.821167,-5.713257c3.688354,1.540649 8.71875,-0.743896 9.1651,-4.491333c-2.167419,-6.749634 -0.173035,-13.49585 5.715759,-17.68042c4.550476,-4.378906 10.938782,-6.646606 17.164246,-7.307251c6.813416,-2.272827 13.548767,-4.733154 20.713867,-5.770752c5.821716,-2.488159 10.850769,-6.616943 16.224854,-9.977539c0.751892,-3.992188 -6.015808,-8.312988 -7.611755,-12.869507c-5.286438,-5.723022 -2.315063,-13.840454 -5.378845,-20.197144c-5.587158,-5.868408 -2.922607,-13.885742 -4.153259,-21.019897c-2.358398,-7.878662 5.706604,-3.327881 9.098999,-1.050537c6.749268,7.154785 10.78241,-8.797852 17.918457,-2.408447c3.476807,0.200195 11.764221,6.006592 12.379517,1.380127c-1.024902,-10.397217 -7.949646,-19.113525 -15.382446,-25.946045c-4.45874,-5.256348 -0.864136,-13.315369 -3.767395,-18.909668c-6.820251,-2.54364 -14.723572,-6.961121 -15.317261,-15.105225c-1.176208,-2.56781 -2.143433,-2.999878 -1.09491,-2.840393c1.048462,0.159546 4.112793,0.910645 5.477173,1.813538c3.499268,6.218018 10.615906,1.709656 14.800659,4.535217z"/>
   <path fill="#999999" fill-rule="evenodd" stroke="#000000" stroke-width="0.86702509pt" id="path3170" d="m414.232239,562.172302c-3.712158,0.379883 -5.93277,8.775452 -10.512695,3.739075c-6.329651,-1.892639 -11.554413,4.957581 -15.389679,9.185059c-5.687103,3.041504 -2.203064,12.43927 -9.320526,13.276306c-5.907074,3.437439 -12.307556,3.710449 -18.803619,2.086243c-7.095245,2.000244 -11.636658,-2.693054 -14.685242,-8.426392c-2.938568,-8.467163 -10.229431,0.6297 -15.172913,-4.307983c-1.997009,-3.576843 -8.557648,-5.324768 -9.401825,-8.832825c-6.892426,-0.180664 -12.975739,-4.674744 -19.31839,-3.305542c-3.955505,4.661499 -9.948914,9.466736 -16.419281,7.044556c-6.213684,-1.413269 -7.914368,6.939758 -12.273834,9.916626c-2.39267,7.016663 -10.023743,8.430603 -15.552277,11.3255c0.002594,0.006104 -0.002411,0.020935 0,0.0271c0.006836,0.018738 0.021637,0.061951 0.0271,0.081299c0.005035,0.019531 0.023407,0.061096 0.0271,0.081238c0.003265,0.020447 -0.001923,0.060303 0,0.081299c0.120422,1.710388 -4.02182,5.379211 -9.130859,8.047119c-5.404572,2.822205 -12.483551,5.419373 -19.237091,6.096252c-6.753601,0.676819 -13.185822,-0.565735 -17.232147,-5.391846c-0.743103,3.98175 -2.078552,7.024231 -3.874512,9.320557c-1.795959,2.296265 -4.031433,3.853027 -6.611053,4.876953c-2.579681,1.023926 -5.494843,1.515137 -8.588989,1.679932c-3.094086,0.164795 -6.387482,-0.016846 -9.726929,-0.298096c-3.339478,-0.281128 -3.806854,-0.661499 -6.665283,-0.975342c-2.202301,2.666138 -4.317627,5.840698 -6.719391,8.751587c-1.569153,2.591064 -5.375458,5.291504 -2.899139,8.561768c2.653564,4.084717 5.128937,8.333252 7.098785,12.788574c0.615356,3.744385 -0.477722,7.572632 -0.704468,11.217285c4.599243,2.818115 9.186157,8.21167 9.347595,16.012695c-2.247681,1.565063 -1.949158,1.918213 -4.308044,2.817871c1.441528,0.905273 2.119141,2.283447 2.628204,4.037109c1.353271,2.928345 2.952057,6.168457 1.11087,9.266357c-0.590179,1.072266 -1.290955,4.564087 -2.30304,4.768555c6.294159,1.517456 9.106964,2.279907 15.145813,6.150513c26.537598,18.277344 6.261597,-21.957397 13.357635,-27.148682c17.380798,-6.470703 30.352875,-8.002319 25.55014,10.025024c27.038086,18.668457 44.679077,-49.005615 54.378723,-7.42395c-3.615356,7.05542 -14.514618,8.20752 -15.525146,8.859863c-0.006073,0.004517 -0.022034,0.022705 -0.0271,0.027222c-0.00412,0.004395 -0.023987,0.022705 -0.0271,0.0271c-0.002106,0.004272 0.001099,0.022705 0,0.0271c-0.000092,0.004272 -0.000977,0.022705 0,0.026978c0.207062,0.438477 6.016968,0.812134 23.680603,3.088745c11.793213,13.147583 26.03894,-6.518555 27.799011,-19.914429c27.018829,0.7771 4.889099,33.312866 24.330902,48.661865c21.310028,-12.279785 11.67804,13.765503 23.409668,14.820679c21.938751,11.302979 42.262299,-21.190674 56.031464,2.628174c-0.123779,3.675293 0.837769,6.73584 2.84491,9.943604c3.688354,1.540649 8.711609,-0.750244 9.157959,-4.497681c-2.16748,-6.749634 -0.171753,-13.508179 5.71698,-17.692749c4.550476,-4.378906 10.952515,-6.627808 17.177917,-7.28833c6.813477,-2.272827 13.535156,-4.733643 20.700195,-5.77124c5.821777,-2.488281 10.855591,-6.637207 16.229675,-9.997803c0.751953,-3.992188 -6.017639,-8.313354 -7.613525,-12.869873c-5.286438,-5.723145 -2.328064,-13.828735 -5.391846,-20.185547c-5.587219,-5.868286 -2.914734,-13.891113 -4.145447,-21.025269c-2.358398,-7.878662 5.711304,-3.334106 9.10376,-1.056763c6.749207,7.154785 10.773376,-8.773682 17.909485,-2.384277c3.476746,0.200073 11.766907,6.008179 12.382202,1.381836c-1.024902,-10.397217 -7.956848,-19.124146 -15.389709,-25.956543c-4.45874,-5.256592 -0.862915,-13.317749 -3.766174,-18.911987c-6.82019,-2.543701 -14.714722,-6.947571 -15.308411,-15.091675c-0.753479,-1.64502 -1.410339,-2.438599 -1.517273,-2.736572c0.188965,-0.051697 0.348816,-0.085999 0.433533,-0.108337c-0.180237,-0.027466 -0.309021,-0.04248 -0.379333,-0.0271c-0.002991,0.000793 -0.024292,-0.000916 -0.0271,0c-0.004761,0.002197 -0.023132,0.024353 -0.0271,0.0271c-0.00238,0.003601 -0.025452,0.022949 -0.0271,0.027039c-0.000244,0.002441 0.000061,0.024536 0,0.0271c0.000305,0.002869 -0.000427,0.02417 0,0.0271c0.001282,0.006226 -0.001953,0.020386 0,0.0271c-0.569885,0.156128 -1.516113,0.420837 -2.465637,0.704468c-5.930786,3.058105 -12.723083,2.386841 -19.155762,2.005005c-6.878723,-0.501831 -11.243286,-7.168884 -15.416809,-11.975769c-3.626465,-6.097656 -11.111145,-8.27948 -17.773987,-8.101257c-5.024231,0.72522 -9.650879,4.671631 -13.547302,-0.270996c-1.205048,-1.297729 -2.250916,-1.722473 -3.197144,-1.625671zm-105.614502,115.612366c11.968048,0.664429 -12.936615,15.918945 0,0zm-129.349304,17.855347c0.019257,0.011108 0.035156,0.018433 0.054199,0.0271c-0.019714,-0.004761 -0.034424,-0.022339 -0.054199,-0.0271zm0.054199,0.0271c0.085602,0.03894 0.162354,0.061035 0.243835,0.054077c-0.082367,-0.019775 -0.160217,-0.033936 -0.243835,-0.054077z"/>
   <path fill="#999999" fill-rule="evenodd" stroke="#000000" stroke-width="0.86702509pt" id="path3126" d="m172.970398,658.90625c-4.096558,-3.059937 -8.376526,-3.480225 -14.557861,-4.680664c-6.181335,-1.200439 -12.60733,-2.352905 -18.017715,-5.059204c-5.410385,-2.706421 -9.805145,-6.966919 -11.923965,-14.383423c1.728882,-16.128418 55.825684,4.390503 20.454041,-12.199707c1.629074,-2.066162 3.741104,-3.425537 6.201538,-4.285156c2.460419,-0.859497 5.269241,-1.218994 8.291855,-1.285156c3.022614,-0.066162 9.187668,0.161133 12.960495,0.475586c-2.202332,2.666138 -4.339111,5.85498 -6.740906,8.765869c-1.569153,2.591187 -5.352173,5.285767 -2.875854,8.55603c2.653564,4.084595 5.106232,8.3396 7.07605,12.795044c0.615326,3.744263 -0.473358,7.575562 -0.867676,11.300781zm6.074554,36.447266c-6.09201,-0.835693 -16.152573,-2.793091 -22.505798,-3.71167c-6.353241,-0.918701 -12.588608,-2.179199 -18.542877,-4.882446c-5.954269,-2.703247 -11.627426,-6.849487 -16.856201,-13.539551c-10.937744,10.052368 -18.316864,34.707397 -37.313278,13.268921c-15.505051,1.463257 -14.741425,-24.712158 -30.06868,-8.713623c-19.051437,-5.170776 -49.553146,-37.735718 -13.137421,-40.725952c24.064285,-26.236267 26.27417,39.544922 47.294678,10.509888c2.557999,-1.048828 5.025146,-1.762207 7.411621,-2.184082c2.386475,-0.421997 4.692261,-0.55249 6.927505,-0.435425c2.235245,0.117065 4.399948,0.481567 6.504242,1.049683c2.104294,0.568115 4.148178,1.339844 6.141815,2.271362c1.993637,0.931274 3.936996,2.022339 5.840256,3.229004c1.903244,1.206787 3.766373,2.529175 5.599518,3.923218c1.833145,1.394287 3.636322,2.860229 5.419632,4.353882c1.78334,1.493774 3.546829,3.015259 5.300629,4.520752c1.753799,1.505371 3.497894,2.994629 5.242432,4.42395c1.744537,1.429077 3.489532,2.798218 5.245102,4.063477c1.755569,1.265015 3.521729,2.42627 5.308609,3.439331c1.78688,1.013184 3.594498,1.878418 5.432968,2.551636c1.83847,0.67334 3.707809,1.154785 5.618179,1.400391c1.910339,0.245483 3.86171,0.255371 5.864212,-0.014771c2.002502,-0.27002 6.541199,-1.648315 8.412292,-2.495605c1.441498,0.905273 2.130005,2.275879 2.639038,4.029663c1.353241,2.928223 2.951172,6.159668 1.109985,9.25769c-0.668518,1.2146 -1.477112,5.530396 -2.888458,4.410278zm-89.815826,-109.102356c-1.812866,-1.359619 -4.339172,1.346313 -6.568695,1.751709c-2.033127,0.369629 -3.861176,1.894775 -5.692886,2.627441c-1.825394,0.730164 -4.245026,2.893555 -6.130814,3.941223c-2.46051,1.366943 -1.631256,2.764404 -2.627457,5.255005c-0.894241,2.235596 0.247513,4.036438 0.875824,6.130737c0.420715,1.402466 4.357941,2.531494 5.692871,3.06543c2.589676,1.035828 3.632675,1.020142 6.56871,1.313721c2.151978,0.21521 4.155487,-1.773376 5.692871,-2.627441c2.178436,-1.210266 2.622879,-2.331482 3.941223,-3.503357c1.745026,-1.551086 2.699554,-2.353027 4.817062,-3.941223c2.151123,-1.613342 4.054047,4.231934 4.379135,4.817078c1.298767,2.337769 2.246552,1.888733 5.254959,2.189575c4.715851,0.471558 2.36264,0.09668 5.25499,2.627502c1.15387,1.009644 0.997314,4.986694 1.313721,6.568726c0.60408,3.020264 1.091492,3.27832 2.189575,5.254883c0.028412,0.05127 5.759811,0.801758 6.130783,0.875854c0.658295,0.131592 3.576187,3.448486 4.817047,4.37915c1.284286,0.963257 5.226456,-0.6073 6.568726,-0.875854c1.359314,-0.271851 4.211975,-1.876709 5.254959,-2.189453c2.254761,-0.676514 3.720154,-2.144531 5.254974,-3.065552c2.212738,-1.327515 2.804703,-2.12561 4.37912,-3.503296c1.547302,-1.35376 1.822662,-3.680664 2.627502,-5.69281c1.149719,-2.87439 -1.559769,-4.121338 -2.189575,-5.255005c-0.762985,-1.373352 -5.157028,-0.734619 -6.56871,-0.875793c-2.394119,-0.239441 -4.481995,-1.257019 -6.130798,-1.751709c-1.486008,-0.44574 -2.045578,-3.769592 -2.627472,-4.817017c-1.181427,-2.126526 -1.983215,-3.744934 -3.065414,-5.692871c-0.865402,-1.557739 -4.276291,-2.323608 -6.130798,-3.06543c-1.761963,-0.704773 -5.19696,-0.939148 -7.444519,-1.313721c-2.261871,-0.376953 -4.182892,-0.637268 -6.56871,-0.875793c-2.263504,-0.226379 -4.467575,-0.227844 -6.56871,-0.437927c-2.215942,-0.221619 -4.797562,-0.871948 -7.006607,-1.313782c-1.647324,-0.329468 -4.074509,0 -5.692886,0zm3.967621,40.770081c-0.943909,-0.188843 -4.93866,0.499756 -7.006607,0.875854c-2.250732,0.40918 -4.397659,-0.264771 -6.130798,-0.437988c-2.538834,-0.253906 -4.310165,-0.63623 -6.56871,-1.313843c-2.365417,-0.709473 -4.041916,-0.983398 -5.692871,-1.313721c-1.871323,-0.374268 -5.943024,2.752686 -7.44455,3.503418c-2.866379,1.433228 2.421814,6.191162 4.817062,8.320313c1.889847,1.67981 3.19603,3.239624 4.379135,4.817139c1.643341,2.19104 1.941193,2.331665 3.503311,3.503174c1.522598,1.141968 3.294479,-1.92334 4.817047,-3.065308c2.126068,-1.594604 4.735367,-2.594849 7.006638,-3.503296c2.073273,-0.829346 6.666534,0.895264 8.758286,1.313721c2.66777,0.533569 4.681549,1.873901 7.444519,2.627441c3.259613,0.888916 3.368301,-0.774536 5.254959,-2.189453c3.866409,-2.899902 2.539261,-3.947754 2.189575,-7.44458c-0.205566,-2.055664 -4.070892,-3.73584 -5.692886,-4.817017c-1.859436,-1.239624 -4.405075,-1.540649 -6.568695,-2.189575c-1.212784,-0.363892 -2.124634,0.9104 -3.065414,1.313721zm80.111847,78.342529c-3.604034,4.155762 -6.394943,11.03772 -11.457687,15.041748c-4.519501,4.39209 -10.222122,7.360107 -14.195831,12.414795c-3.758957,3.004272 -7.985031,9.972656 -13.320831,5.824951c-5.828171,0.323242 -6.877075,8.527588 -12.576767,8.736328c-4.923508,0.858276 -10.130646,-1.30835 -12.956177,4.186279c-3.206604,-1.667725 -2.070099,-9.159424 -7.614777,-5.346558c-4.293106,4.783813 -13.228683,2.942261 -14.659363,-3.647583c-0.629181,-4.861572 2.622284,-13.456909 -5.621384,-12.814941c-6.330841,-2.581055 -12.295593,-6.230957 -19.297226,-3.828003c-4.000259,-3.081177 -9.828766,-10.962402 -12.597778,-2.322998c-5.759735,-5.154419 -10.684128,2.438232 -9.661324,8.197021c0.255112,7.894775 -8.659538,6.029907 -13.617821,4.650757c-5.734116,-0.760864 -11.08284,-3.531982 -14.244957,-8.473145c-3.207817,-4.825073 -4.052353,-11.460205 -0.763916,-16.468262c2.684433,-5.245239 -2.749847,-9.577393 -2.708054,-14.640625c-0.97245,1.755005 11.243484,-3.683594 16.118729,-6.04541c5.699547,-1.030029 12.746605,-5.985352 18.676826,-3.418945c6.87886,1.191406 7.834671,8.579102 14.900833,9.262207c5.990631,1.817139 12.849167,1.644287 16.797806,7.343262c3.886917,2.608154 9.606445,11.965088 13.947845,6.89624c0.906448,-3.66626 4.939056,-7.274414 6.826584,-1.803955c4.204086,4.680664 12.273773,2.001709 14.606506,-3.432251c4.568848,-3.883179 13.401077,-0.127808 12.518066,-8.802368c-1.336472,-6.400269 6.921707,-10.727295 10.410248,-4.454102c0.789627,5.953613 6.161057,9.672852 11.708588,10.927979c4.566116,-0.693115 8.067993,4.398682 10.77565,5.203125c-1.207291,-2.932251 -3.095459,-7.682129 1.993713,-4.796753c4.872437,3.374146 2.862976,-9.103027 8.682968,-4.18689c3.077026,1.00647 4.992126,3.743652 7.329529,5.798096z"/>
   <path fill="#999999" fill-rule="evenodd" stroke="#000000" stroke-width="0.86702509pt" id="path3062" d="m257.461914,593.742859c-0.722504,-0.790527 -3.74939,-0.817139 -13.211304,2.142456c-38.549408,17.963562 -62.899658,-31.899719 -97.216858,-36.78479c-5.300446,-11.223938 -14.24205,-10.980774 -8.629456,-20.369568c1.119217,-1.872192 -7.608551,-2.491028 -9.592438,-4.074097c-1.983856,-1.583069 0.95993,-4.324951 4.208633,-11.027344c-5.810928,-21.997131 12.964859,-2.669128 21.457794,-5.692871c-0.867737,-5.262817 -0.915573,-10.90448 1.970612,-14.889099c5.212418,-7.340942 15.026596,-16.548218 21.676712,-23.647339c7.19693,-8.788635 14.054108,-17.402588 20.39386,-26.11438c6.339752,-8.711731 14.094849,-21.386841 19.221924,-30.566467c2.563538,-4.589844 4.953278,-9.272217 7.142883,-14.02771c4.401245,2.964111 9.022095,4.671875 14.364929,3.293945c3.433044,-1.353271 5.706726,-1.087585 5.57843,2.828369c2.698242,5.836975 -1.870056,12.084229 -4.698029,17.098877c-2.560089,4.682617 -2.217377,11.808472 3.61673,13.586426c4.827271,-0.825623 12.354919,1.739441 15.353546,-2.523254c2.845917,-4.387329 5.538116,-9.170044 9.150299,-13.069946c3.632111,-2.084167 1.374146,6.842285 1.811951,9.099304c-0.594818,2.890686 -1.329163,8.793213 3.242401,5.359253c2.243927,-1.777893 4.805695,-2.922363 7.397156,-4.30127c1.176758,2.263611 2.927246,4.547852 4.828247,6.743652c3.137939,5.747559 9.027374,8.942688 13.349396,13.295593c1.35376,8.340698 -6.367096,6.396118 -11.706787,8.148743c-9.169861,1.583252 2.690216,5.873474 1.690674,10.25061c-2.909973,6.905212 5.120819,6.660889 6.380463,11.738159c5.435425,7.984009 -7.538208,3.078308 -7.436584,9.397705c-3.000092,4.691345 1.334778,5.156799 4.949036,4.762939c6.348389,0.200317 0.299286,3.206055 -2.405182,3.991455c-1.671265,5.047119 4.479095,11.365906 7.42392,15.769348c2.108734,5.61853 6.937714,2.872742 9.040192,-1.122375c5.116913,-6.81781 14.813995,-2.166565 21.296448,-6.477905c3.972595,-4.076111 11.239044,-11.453857 16.272339,-4.640381c0.892853,1.232544 1.867828,2.548584 2.77243,3.926514c0.904572,1.377869 1.738708,2.817688 2.349884,4.297791c0.611145,1.480103 0.999298,3.000488 1.011871,4.539612c0.012573,1.539124 -0.350433,3.096985 -1.241577,4.651978c-2.894135,5.362183 -2.328278,14.664734 -10.433685,14.536255c-6.421936,0.988708 -8.430603,10.242676 -15.146301,9.84375c-5.81073,-0.914063 -1.662537,3.762451 -0.518921,6.339844c5.061829,2.86554 1.391876,7.517517 -2.785156,8.826355c-6.328186,-0.175903 -12.409241,-4.673218 -18.751892,-3.304016c-3.955505,4.66156 -9.971069,9.473877 -16.441467,7.051697c-6.213715,-1.413269 -7.913635,6.932312 -12.273102,9.909119c-2.39267,7.016663 -10.020355,8.441772 -15.46402,11.203064zm-81.963776,-6.177917c-0.721649,-1.082458 -2.320587,-3.563965 -3.503296,-5.692871c-1.48764,-2.677734 -5.111496,-3.445923 -7.44455,-4.37915c-2.96492,-1.185974 -5.278259,-2.789001 -8.320358,-4.817078c-2.026367,-1.350891 -3.967209,-3.194336 -6.130798,-4.817017c-1.937393,-1.453064 -3.317551,-1.612366 -5.254959,-3.06543c-1.659302,-1.244446 -3.173218,-2.270386 -4.817062,-3.503296c-2.277969,-1.708496 -4.881958,-3.542236 -7.006622,-4.817078c-3.194595,-1.916748 -3.173508,-1.751648 -7.006607,-1.751648c-1.351715,0 -5.116943,2.484741 -6.56871,3.06543c-2.662964,1.065186 -4.886017,1.859924 -7.444534,2.627441c-2.309387,0.692871 -4.513489,2.037842 -6.56871,3.06543c-3.01918,1.509583 -2.813339,3.649475 -3.941223,6.130798c-1.196304,2.631836 0.845596,3.900879 2.189575,5.692871c0.869507,1.159363 4.740265,-0.932678 5.692871,-1.313721c2.093109,-0.83728 3.092926,-1.499939 4.817062,-2.189575c2.1315,-0.8526 4.173828,-1.47113 6.568695,-2.189575c1.723587,-0.51709 3.238495,-0.875854 5.692886,-0.875854c2.901443,0 3.592651,1.086731 5.254974,1.751648c1.182053,0.472839 2.115723,4.413513 2.627472,5.692932c0.911682,2.279175 1.277908,4.19989 1.751663,6.568665c0.413757,2.068848 1.076569,3.759155 1.313736,6.130798c0.207703,2.076965 1.551498,3.65979 2.18956,5.254944c1.060699,2.651733 3.475647,1.962341 5.692886,2.627502c1.72699,0.518127 4.921219,0.273193 6.568695,0.437927c2.222488,0.222229 4.484833,2.15094 6.130798,3.065369c1.437103,0.798401 2.808517,2.387451 4.817062,3.503296c2.250122,1.250122 4.222458,1.923645 6.568726,2.627502c2.605011,0.781555 4.10498,1.745361 5.692871,2.627502c1.839386,1.021851 2.920837,3.103149 4.37915,4.37915c0.783081,0.685181 5.431854,0 6.568695,0c3.41507,0 5.440582,0.331787 8.75827,0c1.858826,-0.185913 4.07373,-1.971252 5.254944,-2.627502c2.724182,-1.513428 1.292267,-1.975769 2.627502,-4.37915c0.292633,-0.526672 -5.452271,-3.369629 -5.692871,-3.503296c-1.535217,-0.852905 -3.431213,-3.011292 -5.254974,-4.37915c-1.991119,-1.493286 -3.678833,-2.759094 -5.254974,-3.941223c-2.324646,-1.743469 -5.048737,-2.144348 -7.444519,-3.941223c-1.241364,-0.93103 -2.335571,-2.043579 -3.503326,-3.065369z"/>
   <path fill="#999999" fill-rule="evenodd" stroke="#000000" stroke-width="0.86702509pt" id="path3031" d="m287.604065,147.899475c-8.651794,13.949158 -46.533142,65.296143 -11.385742,58.680481c16.059082,-15.653503 31.204346,-33.807251 17.516541,-54.301331c1.71814,-7.686523 -3.553345,-8.223389 -6.130798,-4.37915zm-35.033112,61.307922c-20.062408,12.707275 24.718689,1.581726 0.000031,0l-0.000031,0zm28.176758,231.249207c-2.637482,0.985657 -5.199249,2.130127 -7.443176,3.90802c-4.571564,3.43396 -3.837219,-2.468567 -3.242401,-5.359253c-0.437805,-2.257019 1.82016,-11.183472 -1.811951,-9.099304c-3.612183,3.899902 -6.304382,8.682617 -9.150299,13.069946c-2.998627,4.262695 -10.526276,1.697632 -15.353546,2.523254c-5.834106,-1.777954 -6.176819,-8.903809 -3.61673,-13.586426c2.827972,-5.014648 7.396271,-11.261902 4.698029,-17.098877c0.128296,-3.915955 -2.145386,-4.181641 -5.57843,-2.828369c-5.342834,1.37793 -9.963684,-0.329834 -14.364929,-3.293945c2.197754,-4.862427 4.195435,-9.797974 5.974884,-14.894165c3.558807,-10.192444 4.311829,-17.161743 5.94693,-28.911743c3.854828,-13.789795 8.641083,-26.791077 9.634094,-40.069092c-2.478851,-35.851379 14.837097,-67.125854 15.545929,-103.566589c22.478485,-23.762756 16.643738,30.183594 40.507019,21.238831c-2.896545,-31.196045 37.658051,-14.905396 35.908936,11.385742c-12.261261,30.04187 13.625946,29.354004 30.42923,29.391052c4.307861,31.166809 -30.557648,37.500793 -51.746735,36.335632c-0.426727,19.538635 22.061798,34.699707 9.493835,53.82373c21.285431,14.31012 -41.964294,26.746277 1.673279,33.012939c16.746185,-3.894531 22.969116,14.019897 40.585419,10.121582c2.239716,3.422729 1.397034,3.564697 4.033386,6.254761c-3.838257,4.516479 -6.579956,9.437805 -8.514832,14.79248c-0.808289,6.263245 -4.956848,11.211914 -10.250214,14.385254c-2.846619,4.450195 -14.412659,3.748474 -10.859283,-2.74585c4.867554,-5.847046 -2.333191,-8.393677 -7.367279,-9.023926c-4.750641,1.896484 -8.323181,-1.408569 -6.587158,-6.294312c0.176331,-3.941895 10.549561,-9.539063 2.570831,-11.261292c-5.511658,1.40564 -6.386169,-4.869263 -10.162506,-6.325134c-6.572662,-4.953247 -3.47113,7.945129 -9.314423,8.425232c-5.128723,0.556091 -7.801208,6.971985 -13.015717,5.728149c-6.360474,-3.649475 -6.781464,4.499084 -10.724884,7.006836c-2.546692,1.142395 -5.259857,1.969177 -7.897308,2.954834z"/>
   <path fill="#999999" fill-rule="evenodd" stroke="#000000" stroke-width="0.86702509pt" id="path3104" d="m347.156281,515.847412c4.70163,0.136292 6.366913,6.488586 11.393555,5.563843c4.910492,1.802307 8.1362,-3.169983 11.945587,-3.931396c2.625549,3.701843 5.153229,8.367432 10.666504,6.681702c5.334839,0.289368 10.093414,-2.839172 14.703217,-5.096252c4.446991,-2.229004 9.557007,-4.647156 14.54541,-2.645508c4.999146,0.054321 8.290375,3.777405 12.194183,6.316772c4.387878,3.345398 9.694824,5.381775 15.228333,5.536194c2.34082,-2.266113 2.152832,-7.384888 -0.181335,-10.442993c-2.08667,-4.385803 -6.473206,-7.217102 -8.320679,-11.796143c-2.657898,-4.339294 -4.216553,-9.187256 -4.154785,-14.318604c-0.344604,-4.363403 0.957947,-12.252319 -5.939178,-9.895142c-3.767059,1.304749 -8.361572,8.388306 -12.090729,4.350037c-3.530792,-5.277588 3.628845,-7.469482 5.095215,-11.735107c-0.000885,-3.543335 1.043152,-9.097229 -3.63501,-10.024475c-4.537109,-1.233215 -8.926392,-3.415649 -12.437195,-6.521606c0.796692,-3.235107 6.788788,-5.14447 2.451904,-8.585083c-2.727692,-3.830139 -5.694305,-8.142822 -5.188721,-13.075378l0.359406,-0.670166l0.041016,-1.300415c-3.547882,-0.907715 -6.50235,-1.839294 -9.372559,-3.254761c-2.870209,-1.415527 -8.969574,-6.076172 -11.589935,-8.188599c-3.838257,4.516479 -6.579956,9.437805 -8.514832,14.79248c-0.808289,6.263245 -4.956848,11.211914 -10.250214,14.385254c-2.846619,4.450195 -14.412659,3.748474 -10.859283,-2.74585c4.867554,-5.847046 -2.333191,-8.393677 -7.367279,-9.023926c-4.750641,1.896484 -8.323181,-1.408569 -6.587158,-6.294312c0.176331,-3.941895 10.549561,-9.539063 2.570831,-11.261292c-5.511658,1.40564 -6.386169,-4.869263 -10.162506,-6.325134c-6.572662,-4.953247 -3.47113,7.945129 -9.314423,8.425232c-5.128723,0.556091 -7.801208,6.971985 -13.015717,5.728149c-6.360474,-3.649475 -6.781464,4.499084 -10.724884,7.006836c-2.546692,1.142395 -5.259857,1.969177 -7.943329,2.561584c1.176758,2.263611 2.927246,4.547852 4.828247,6.743652c3.137939,5.747559 9.027374,8.942688 13.349396,13.295593c1.35376,8.340698 -6.367096,6.396118 -11.706787,8.148743c-9.169861,1.583252 2.690216,5.873474 1.690674,10.25061c-2.909973,6.905212 5.120819,6.660889 6.380463,11.738159c5.435425,7.984009 -7.538208,3.078308 -7.436584,9.397705c-3.000092,4.691345 1.334778,5.156799 4.949036,4.762939c6.348389,0.200317 0.299286,3.206055 -2.405182,3.991455c-1.671265,5.047119 4.479095,11.365906 7.42392,15.769348c2.108734,5.61853 6.937714,2.872742 9.040192,-1.122375c5.116913,-6.81781 14.813995,-2.166565 21.296448,-6.477905c3.972595,-4.076111 11.239044,-11.453857 16.272339,-4.640381c0.892853,1.232544 1.867828,2.548584 2.77243,3.926514z"/>
   <path fill="#999999" fill-rule="evenodd" stroke="#000000" stroke-width="0.86702509pt" id="path2894" d="m486.240845,581.319519c-0.339111,0.089417 -1.631897,0.44281 -2.915955,0.826416c-5.930786,3.058167 -12.735535,2.394165 -19.168152,2.012329c-6.878662,-0.501831 -11.223022,-7.172302 -15.396545,-11.979187c-3.626465,-6.097656 -11.124634,-8.287537 -17.787476,-8.109314c-5.024231,0.72522 -9.65683,4.678589 -13.553253,-0.264038c-5.932617,-6.388794 -7.952789,8.421021 -13.700104,2.10083c-6.329651,-1.892639 -11.55246,4.973816 -15.387756,9.201294c-5.687103,3.041443 -2.211212,12.421326 -9.328674,13.258362c-5.907074,3.437378 -12.310364,3.716003 -18.806396,2.091858c-7.095276,2.000244 -11.629333,-2.698181 -14.677917,-8.431519c-2.938568,-8.467163 -10.226471,0.641541 -15.169983,-4.296143c-1.997009,-3.576843 -8.547821,-5.334656 -9.391998,-8.842712c3.612793,-1.313538 7.282745,-5.965515 2.220917,-8.831055c-1.143616,-2.577393 -5.291809,-7.253906 0.518921,-6.339844c6.715698,0.398926 8.724365,-8.855042 15.146301,-9.84375c8.105408,0.128479 7.539551,-9.174072 10.433685,-14.536255c0.891144,-1.554993 1.25415,-3.112854 1.241577,-4.651978c-0.012573,-1.539124 -0.400726,-3.059509 -1.011871,-4.539612c-0.611176,-1.480103 -1.445313,-2.919922 -2.190125,-4.282471c4.54187,0.120972 6.207153,6.473267 11.233795,5.548523c4.910492,1.802307 8.1362,-3.169983 11.945587,-3.931396c2.625549,3.701843 5.153229,8.367432 10.666504,6.681702c5.334839,0.289368 10.093414,-2.839172 14.703217,-5.096252c4.446991,-2.229004 9.557007,-4.647156 14.54541,-2.645508c4.999146,0.054321 8.290375,3.777405 12.194183,6.316772c4.387878,3.345398 9.694824,5.381775 15.228333,5.536194c2.34082,-2.266113 2.152832,-7.384888 -0.181335,-10.442993c-2.08667,-4.385803 -6.473206,-7.217102 -8.320679,-11.796143c-2.657898,-4.339294 -4.216553,-9.187256 -4.154785,-14.318604c-0.344604,-4.363403 0.957947,-12.252319 -5.939178,-9.895142c-3.767059,1.304749 -8.361572,8.388306 -12.090729,4.350037c-3.530792,-5.277588 3.628845,-7.469482 5.095215,-11.735107c-0.000885,-3.543335 1.043152,-9.097229 -3.63501,-10.024475c-4.537109,-1.233215 -8.926392,-3.415649 -12.437195,-6.521606c0.796692,-3.235107 6.788788,-5.14447 2.451904,-8.585083c-2.727692,-3.830139 -5.694305,-8.142822 -5.188721,-13.075378l0.359406,-0.670166l0.041016,-1.300415c2.382813,0.023071 5.359009,0.022339 8.272736,-0.426636c2.913696,-0.448975 5.764893,-1.346252 8.480225,-2.67395c2.715302,-1.327759 5.294739,-3.085876 7.664948,-5.256592c2.370178,-2.170776 4.531067,-4.754089 6.409332,-7.732117c1.878357,-2.978088 3.473999,-6.350891 4.713562,-10.100647c4.401001,-4.796387 10.696472,-9.552002 17.334839,-14.574951c6.638428,-5.02301 13.619751,-10.313477 19.392578,-16.179382c5.772705,-5.865906 12.180786,-16.523743 13.025635,-24.335083c5.548096,1.388672 9.709229,5.620239 12.1073,10.436462c5.429321,6.809204 11.915039,0.448975 14.491943,-5.443542c6.789673,-0.144348 12.329773,7.661194 16.816772,12.511292c6.445374,3.89856 -1.87677,10.726563 3.027588,13.843323c9.900085,2.062317 -0.281494,9.59729 -1.81897,14.68573c-3.303284,3.690613 -14.365601,9.239319 -4.802246,12.78186c6.728027,2.789551 10.759827,8.639465 11.867615,15.727478c-0.057495,10.60376 10.776489,6.644897 17.237061,10.055481c6.784668,1.853821 15.339783,5.080261 21.419189,-0.115295c2.701965,-6.348938 15.522766,-10.191162 15.053955,-0.111694c2.466919,6.830139 8.306335,13.291931 15.734497,14.565247c7.145386,-2.793213 13.855042,-0.694763 20.012146,2.635803c7.539368,-6.569275 10.993042,3.763916 10.471252,10.125977c3.133972,7.032227 13.542236,2.176819 17.863525,8.234619c1.332947,14.500183 -24.13031,18.61615 3.01062,25.631104c29.983459,10.089661 1.223206,50.474609 -18.786377,35.28186c-13.950256,12.71167 -35.200928,16.43927 -50.561157,19.333984c1.588806,14.250977 -37.494751,-12.871887 -48.997864,-13.763611c-13.295837,6.5755 25.62384,22.776245 -6.568665,13.137451c-12.915955,7.636902 -32.343323,10.342957 -17.078674,29.778076c-3.834656,3.316772 -4.685974,3.907104 -3.33197,5.34436c-3.960449,-2.811584 -11.077087,1.696777 -14.576355,-4.52124c-1.36438,-0.902893 -4.428711,-1.653992 -5.477173,-1.813538z"/>
   <path fill="#999999" fill-rule="evenodd" stroke="#000000" stroke-width="0.86702509pt" id="path3010" d="m433.429382,325.254578c-4.672974,1.524658 -12.142181,1.842468 -16.290649,7.16803c-6.567078,1.926147 -3.91507,12.42627 -13.049591,9.472656c-7.22113,3.993835 -8.735596,13.78479 -13.115143,18.47406c-4.812134,1.527161 6.493683,10.750305 -4.38092,10.439758c-5.470673,-5.39856 -6.920013,-0.249939 -8.831329,4.428528c-8.019653,2.667847 -16.743164,0.950867 -23.31485,7.736816c-7.15686,2.669617 -14.540741,5.994568 -11.69577,15.092102c-2.821228,8.029968 5.003845,12.753967 9.664185,5.574646c9.332031,-2.599182 17.787811,3.727112 24.518341,9.504517c6.249298,5.677673 12.446808,13.712891 18.845459,17.924927c7.88147,-3.04248 18.470642,-2.118103 22.515472,-10.936768c1.249603,-7.316101 4.47641,-4.577087 0.875427,-19.677429c3.888702,-8.042664 14.882843,3.353821 17.762665,-7.325195c2.457642,-10.570435 14.640808,-8.021851 21.705383,-13.216064c6.010864,-7.512451 13.764465,-14.948486 15.040894,-24.947205c1.305542,-8.694092 -2.498108,-23.389404 -13.693604,-21.383118c-9.184692,1.00769 -18.498779,-4.328247 -26.555969,-8.330261zm29.887024,-60.596863c-0.971741,-1.53595 -2.716431,-4.44165 -4.134277,-5.602356c-2.086609,-1.83844 -4.363708,-3.470581 -6.670288,-5.011902c-0.912903,-0.461426 -3.043701,-0.618713 -4.710571,-1.126221c-7.049133,-3.270081 -8.252136,5.816345 -12.295837,9.015869c-1.790405,5.778259 -5.24231,10.581543 -10.396423,13.837219c-1.992828,5.468994 -3.034576,11.463684 -1.472626,17.172058c0.874481,5.538086 -1.902374,12.774902 3.424774,16.682129c5.469666,3.109253 6.101196,11.134155 12.073853,12.855103c6.438354,2.990051 13.166687,-0.982788 19.636719,-1.646606c6.398804,1.236389 13.045532,0.312073 18.994385,-2.325623c5.463745,-2.134888 11.042725,-3.79657 16.944946,-3.544861c4.828857,-4.961609 -6.500122,-6.288696 -10.514954,-6.169922c0.622742,-3.894653 7.585632,-11.61145 11.819397,-14.272278c-1.884583,-1.255554 -4.370361,-3.546021 -5.530151,-5.365051c-1.39801,-2.787537 -3.022461,-5.476807 -5.298157,-7.646179c-1.545471,-2.053589 -3.492859,-3.79303 -5.888489,-4.791748c-3.04541,-1.446472 -5.515625,-3.772583 -8.114197,-5.85376c-1.953735,-1.12561 -4.051697,-1.968323 -6.083313,-2.937744c-1.126831,-1.385071 -1.069336,-1.641724 -1.912964,-3.2229"/>
   <path fill="#999999" fill-rule="evenodd" stroke="#000000" stroke-width="0.86702509pt" id="path2826" d="m522.524414,251.309448c4.595215,3.580994 9.644043,7.817993 13.262512,13.302979c3.99939,1.575317 3.932922,5.205872 0.701294,7.676636c-2.362976,4.364136 -9.193115,4.199219 -9.881836,9.693054c0.481079,4.271118 -0.049805,9.38324 2.520996,13.09967c2.003723,3.531494 5.278687,6.009155 9.364685,6.451599c6.774658,2.44751 14.651855,0.645691 20.833191,4.819397c3.46106,2.6203 9.388184,2.680786 10.961304,7.259644c-0.448669,4.050354 1.526001,7.838318 6.199341,6.24231c4.271118,0.593323 7.971863,4.679565 12.509399,2.834717c5.414246,1.954407 7.852051,-2.199097 7.171326,-7.219971c-0.275269,-5.162964 2.714661,-8.415649 7.325317,-10.163208c3.584412,-2.931946 8.696228,-3.448547 12.928589,-1.744507c5.760559,3.291992 11.727356,6.291016 17.049988,10.159851c-1.24707,0.52887 -1.619873,1.535339 -1.463135,2.840881c0.156738,1.305542 0.842957,2.910034 1.775574,4.674316c0.932556,1.764282 2.11145,3.688354 3.253479,5.632935c1.142029,1.94458 2.247192,3.90979 3.032288,5.756287c0.785095,1.846497 1.250122,3.574402 1.111938,5.044373c-0.138245,1.470093 -0.8797,2.682251 -2.507629,3.497314c-1.627869,0.815063 -4.142273,1.233093 -7.826233,1.114868c-3.176636,27.662964 35.153992,33.713379 51.317627,27.201294c17.849487,-6.734741 24.512207,37.828003 15.764893,53.425415c16.515991,13.57959 -12.766663,17.809814 -16.640747,27.150696c-13.318054,6.626709 -14.639587,26.786072 -32.680115,22.851074c-4.321289,-6.0578 -14.729553,-1.202393 -17.863525,-8.234619c0.52179,-6.362061 -2.931885,-16.695251 -10.471252,-10.125977c-6.157104,-3.330566 -12.86676,-5.429016 -20.012146,-2.635803c-7.428162,-1.273315 -13.267578,-7.735107 -15.734497,-14.565247c0.468811,-10.079468 -12.35199,-6.237244 -15.053955,0.111694c-6.079407,5.195557 -14.634521,1.969116 -21.419189,0.115295c-6.460571,-3.410583 -17.294556,0.548279 -17.237061,-10.055481c-1.107788,-7.088013 -5.139587,-12.937927 -11.867615,-15.727478c-9.563354,-3.542542 1.498962,-9.091248 4.802246,-12.78186c1.537476,-5.08844 11.719055,-12.623413 1.81897,-14.68573c-4.904358,-3.11676 3.417786,-9.944763 -3.027588,-13.843323c-4.487,-4.850098 -10.0271,-12.65564 -16.816772,-12.511292c-2.576904,5.892517 -9.062622,12.252747 -14.491943,5.443542c-2.398071,-4.816223 -6.559204,-9.047791 -12.1073,-10.436462c0.090942,-5.935852 -0.33252,0.28479 -0.33252,0.28479c0.423462,-6.220642 0.295654,-11.116028 -5.095764,-20.268555c-6.224915,-14.935303 7.123596,-8.103271 10.382507,-11.55603c4.974731,-3.22052 12.473999,0.105347 17.158569,-3.83551c5.222778,-2.095459 4.12207,-11.869019 -2.339355,-10.25824c-5.262878,-0.036194 -8.601624,-5.951965 -3.63855,-9.040405c1.466492,-2.182312 1.276794,-4.257629 0.704956,-3.832886c-1.835754,-1.206726 -4.321533,-3.497192 -5.481323,-5.316223c-1.39801,-2.787537 -3.022461,-5.476807 -5.298157,-7.646179c-1.545471,-2.053589 -3.492859,-3.79303 -5.888489,-4.791748c-3.04541,-1.446472 -5.515625,-3.772583 -8.114197,-5.85376c-1.953735,-1.12561 -4.051697,-1.968323 -6.083313,-2.937744c-1.126831,-1.385071 -1.069336,-1.641724 -1.848877,-3.245544c1.914307,-3.955383 2.056152,-2.904968 6.819031,-3.381226c3.375916,-0.337585 6.05249,1.373962 8.835693,2.208862c3.470215,1.041138 5.648621,-1.297302 8.283508,-2.761108c1.898987,-1.054993 3.740723,-3.325134 4.970093,-4.417908c1.23822,-1.100586 3.313354,0 4.970032,0c2.400085,0 3.84613,2.974304 6.074585,3.865662c0.910706,0.364319 6.73114,-2.91333 7.731201,-3.313354c3.191956,-1.276794 6.381104,-2.331543 8.835754,-3.313477c1.292603,-0.516968 2.066895,-1.349854 2.752197,-2.258301z"/>
   <path fill="#999999" fill-rule="evenodd" stroke="#000000" stroke-width="0.86702509pt" id="path2747" d="m633.532043,313.761108c-5.384155,-3.908325 -11.350952,-6.907349 -17.111511,-10.199341c-4.232361,-1.704041 -9.344177,-1.187439 -12.928589,1.744507c-4.610657,1.747559 -7.600586,5.000244 -7.325317,10.163208c0.680725,5.020874 -1.75708,9.174377 -7.171326,7.219971c-4.537537,1.844849 -8.238281,-2.241394 -12.509399,-2.834717c-4.67334,1.596008 -6.64801,-2.191956 -6.199341,-6.24231c-1.57312,-4.578857 -7.500244,-4.639343 -10.961304,-7.259644c-6.181335,-4.173706 -14.058533,-2.371887 -20.833191,-4.819397c-4.085999,-0.442444 -7.360962,-2.920105 -9.364685,-6.451599c-2.570801,-3.716431 -2.039917,-8.828552 -2.520996,-13.09967c0.688721,-5.493835 7.51886,-5.328918 9.881836,-9.693054c3.231628,-2.470764 3.298096,-6.101318 -0.701294,-7.676636c-3.618469,-5.484985 -8.667297,-9.721985 -13.258057,-13.830505c0.680786,-0.38092 1.277039,-1.364868 2.21344,-2.184204c1.966919,-1.721069 2.86084,-3.713684 3.865601,-5.522339c1.013306,-1.823914 5.000061,-2.273132 6.626831,-2.761169c2.113647,-0.634094 4.496094,-4.046509 5.522278,-4.970093c2.014771,-1.813232 3.339233,-2.553955 4.970093,-4.417847c2.645752,-3.023682 2.888733,-2.548767 6.62677,-4.417847c3.617249,-1.808594 5.283081,2.390991 7.179077,3.865662c3.321838,2.583679 3.725342,1.505005 7.731201,1.104431c4.200439,-0.420044 4.411865,-2.438721 6.626831,-4.970093c1.482239,-1.69397 2.236389,-4.135986 3.313354,-6.074585c1.262024,-2.271545 1.636902,-3.263916 2.761169,-6.074524c1.441101,-3.602661 -1.914368,-3.853333 -4.417847,-5.522339c-3.450378,-2.300232 -4.904785,-4.027649 -7.179016,-6.62677c-2.123596,-2.426941 -0.815918,-6.750916 -0.552246,-9.387939c0.227966,-2.279846 -1.146179,-5.178589 -1.656677,-7.731262c-0.684814,-3.424133 -3.787537,-4.359314 -6.074585,-6.074524c-1.778809,-1.334167 -3.435181,-2.382813 -4.221802,-3.806396c2.838013,0.18042 6.281372,0.463562 9.327026,-0.345154c1.664856,-5.016785 0.032288,-11.834045 3.291016,-17.065857c1.670227,-6.383606 8.010254,-8.973633 11.347046,-14.168213c4.477356,-6.257507 14.630066,-4.792847 17.256287,2.251648c-2.162903,8.904785 10.122253,4.956299 10.287842,12.392273c1.590088,6.694153 8.81366,11.818909 15.206482,7.368408c5.607422,-2.909302 13.485168,-2.033142 15.853027,4.592102c5.15094,6.019165 11.10675,11.35199 16.173889,17.476929c4.513916,6.456055 9.792969,12.092346 16.099915,16.810913c6.55896,4.682251 7.111694,14.379578 14.317444,17.918701c9.164856,2.705688 -1.361511,11.100281 4.193909,16.146667c1.011292,6.793579 7.002808,7.842346 12.982971,10.130432c-5.228882,15.356323 -6.320862,28.677002 -4.708801,49.384949c5.126099,33.979797 -40.218567,-1.842102 -57.804626,15.327026c-3.094116,-0.447266 -5.092346,-0.317139 -6.277832,0.251221"/>
   <g fill="#baebbc" display="inline" transform="matrix(0.867025 0 0 0.867025 808.649 72.21)" id="g2487">
    <path fill="#999999" fill-rule="evenodd" stroke="#000000" stroke-width="1pt" id="path7043" d="m-294.376404,-32.405136c1.936157,-2.212769 -5.198059,2.958893 -8.081207,3.535522c-2.374786,0.474976 -4.8508,1.980316 -7.576172,2.525391c-2.771576,0.554321 -5.352356,0.272888 -8.081207,0c-2.207764,-0.220764 -5.626007,0.505066 -8.081207,0.505066c-3.211456,0 -4.949005,0.878632 -7.071075,1.515228c-1.026642,0.308014 -3.093201,5.264709 -3.535553,6.060944c-0.643799,1.158844 0.346039,5.985474 0.505096,7.576111c0.392212,3.921997 4.342957,1.737549 6.565979,1.515259c0.528625,-0.052887 3.256226,-4.173279 3.535553,-4.545685c1.652802,-2.203766 4.122803,-1.287384 6.565979,-2.020325c2.522675,-0.756805 4.783508,-0.552643 7.071075,-1.010162c2.494781,-0.498932 4.243439,-1.79837 6.060913,-2.52536c2.312042,-0.924835 3.772919,-2.346924 5.555847,-3.535553c2.018951,-1.345978 2.717743,-1.734314 5.050751,-3.030457c1.946503,-1.08139 5.232971,-0.505066 7.576141,-0.505066c1.882324,0 -0.673431,-3.703888 -1.010162,-5.555847c-0.476288,-2.619659 -4.302612,-0.430237 -5.050751,-0.505066z"/>
    <path fill="#999999" fill-rule="evenodd" stroke="#000000" stroke-width="1pt" id="path7041" d="m-433.777466,-14.222397c-0.581207,-3.196747 -5.597107,0.466431 -6.060913,0.505096c-1.712646,0.1427 -1.825104,5.590057 -2.020294,6.565979c-0.336426,1.682159 2.521759,5.65033 3.030457,6.565979c1.073242,1.931854 5.799561,2.497498 7.576141,3.030487c3.078644,0.923584 4.253937,-1.297546 6.060913,-2.020325c1.735107,-0.694031 3.399902,-2.676178 4.545685,-3.535522c1.716095,-1.287079 3.613861,-2.232178 5.050751,-3.030457c2.223724,-1.235413 4.246887,-1.455475 7.071075,-2.020325c0.258331,-0.051666 6.88858,1.983826 7.071075,2.020325c2.045258,0.409027 6.707886,-1.24057 8.081238,-1.515259c1.80365,-0.360718 4.844116,-1.503723 6.565979,-2.020294c2.097534,-0.629242 4.186462,-0.952881 6.060913,-1.515228c2.331848,-0.699554 5.484802,0.295959 7.576141,0.505066c1.756134,0.175629 5.274689,-0.830505 7.071075,-1.010132c2.412354,-0.241241 3.698395,-1.493469 5.555847,-2.525391c2.172943,-1.207184 -4.128479,-3.048035 -6.56601,-3.535522c-2.714325,-0.542877 -5.327789,-1.014618 -8.081207,-1.515228c-2.742462,-0.498627 -5.538727,0.250824 -8.081238,0.505066c-2.241669,0.224182 -5.070892,1.519257 -7.576141,2.020294c-2.308746,0.461761 -5.212921,0 -7.576141,0c-2.922028,0 -5.03595,0.502136 -7.576141,1.010162c-2.506683,0.501343 -4.812958,2.561646 -6.565979,3.535522c-2.737061,1.520599 -6.449402,2.086334 -9.596466,3.030487c-2.755096,0.826508 -5.888824,-0.571686 -8.081207,-1.010162c-2.684601,-0.536926 -1.740356,-1.988983 -3.535553,-4.040619z"/>
    <path fill="#999999" fill-rule="evenodd" stroke="#000000" stroke-width="1pt" id="path7039" d="m-456.000824,-5.636093c0.167358,-0.935272 -2.905853,2.512939 -3.955383,3.32959c-2.405853,2.567047 -5.435425,4.431976 -8.861389,5.27771c-3.634064,0.870972 -2.484131,5.819336 -4.357819,8.176361c-3.724304,0.988678 -7.222931,-1.723419 -10.97995,-1.572266c-3.302917,-0.777313 -6.114258,0.561401 -7.65271,3.611084c-1.855377,3.260864 -6.032593,3.068665 -9.173004,4.18866c-4.908813,0.916138 -9.88208,1.585052 -14.618713,3.252838c-4.229919,1.198395 -6.179382,3.635559 -10.451721,4.755646c-3.423523,0.494629 -4.699463,8.439392 -6.600708,8.298126c-3.168091,1.958801 -6.838867,-3.226501 -7.1026,-5.741913c1.039856,-2.889099 2.582642,-6.546234 5.433228,-8.042236c6.436707,-3.965485 11.236206,-9.349609 18.742676,-11.245758c4.804901,-1.725128 9.617767,-3.427246 14.562775,-4.727509c5.394073,-1.848297 11.229095,-1.105103 16.731049,-2.489258c3.712738,-0.943451 7.074188,-2.892609 10.735474,-4.009583c5.445801,-2.562836 11.015198,-5.157806 16.97171,-6.230804c1.255188,0.319366 -1.043854,2.495087 0.577087,3.169312z"/>
    <path fill="#999999" fill-rule="evenodd" stroke="#000000" stroke-width="1pt" id="path7037" d="m-535.802795,43.861343c-4.022949,0.188782 -3.281677,0.83728 -4.545715,5.050781c-1.6073,5.357422 2.858276,0.476379 3.030396,0.505127c3.884705,0.6474 1.299316,-4.47583 1.51532,-5.555908z"/>
    <path fill="#999999" fill-rule="evenodd" stroke="#000000" stroke-width="1pt" id="path7035" d="m-510.043976,59.518753c2.006622,0.334412 -2.52536,3.521545 -2.52536,5.555847c0,4.868896 4.969238,-2.416687 5.050751,-2.525391c1.441925,-1.922607 -2.250916,-2.701111 -2.525391,-3.030457z"/>
    <path fill="#999999" fill-rule="evenodd" stroke="#000000" stroke-width="1pt" id="path7033" d="m-553.480469,42.346146c0.529297,-1.378967 -2.131592,0.635376 -2.727661,0.885071c-2.521973,1.653442 -5.401245,2.901428 -7.281433,5.356445c-2.353333,3.038696 -5.574707,5.174988 -8.479187,7.631836c-3.236694,2.096802 -7.64917,1.920288 -10.313721,4.960876c-2.008423,2.063293 -4.592224,3.478821 -6.616699,5.508545c-1.96698,3.015869 -3.758667,6.156128 -5.997559,8.992249c-0.480225,2.329163 3.029663,2.776733 4.671997,3.499695c2.430054,0.646851 4.107605,-0.119202 6.534058,-1.491394c3.634644,-2.847168 4.544128,-2.392334 5.551758,-4.459473c4.070801,-3.838074 2.312927,-4.354675 5.004944,-6.178284c2.040588,-1.022217 3.75238,-2.37677 3.292419,-4.888489c0.339355,-1.940247 -0.354858,-4.228088 0.895081,-5.896545c2.159485,-0.846863 4.663391,-0.501709 6.865784,-1.540222c2.289917,-0.518921 5.042603,-0.400818 6.568665,-2.525208c1.53949,-2.025879 3.750183,-3.540344 4.65387,-6.01355c1.388916,-1.510376 1.105469,-3.253845 -1.147339,-3.313538c-0.500488,-0.146118 -1.014587,-0.275818 -1.474976,-0.528015z"/>
    <path fill="#999999" fill-rule="evenodd" stroke="#000000" stroke-width="1pt" id="path3129" d="m-304.052795,31.092972c0.24942,-0.628235 4.45108,0.129944 4.627838,1.013672c0.753906,3.769623 1.950714,5.405701 0,8.916992c-1.361938,2.451477 -1.39624,6.84436 -2.547699,8.916992c-1.709961,3.077881 -2.419128,4.584045 -4.458527,7.643127c-1.1297,1.69458 -5.265564,4.244629 -4.458466,8.280029c0.388641,1.943237 2.326233,8.169067 1.910767,9.553955c-0.384094,1.280334 -0.975739,5.209656 -2.547699,7.006165c-1.902679,2.1745 -2.858612,4.312317 -4.458496,6.369324c-0.817535,1.051086 -4.651886,3.798584 -4.458496,5.7323c0.29425,2.942627 -0.438293,5.294128 2.547699,8.28009c2.219086,2.219055 4.498352,5.867737 7.006226,6.369263c3.725189,0.745056 9.079132,0.718018 11.464691,1.910767c3.168945,1.584534 4.397919,0.400513 7.006195,5.095459c0.956177,1.721069 0.40802,2.384766 1.089142,3.321411c0.681152,0.936584 2.591522,2.146057 4.643219,3.684753c2.637787,1.978394 6.216339,3.056946 7.006195,7.006226c0.588837,2.944214 2.173737,6.287476 1.910797,8.916992c-0.304169,3.041443 -1.812347,8.028625 0.636902,10.827759c2.623077,2.997803 4.300476,4.990112 8.28006,7.643127c2.887421,1.924988 6.757538,2.21405 5.095428,6.369263c-1.296661,3.241699 -1.729095,4.38623 -3.184631,7.006226c-1.242188,2.235962 -2.111969,5.052368 -3.821564,7.006226c-2.554688,2.919617 -2.798462,5.247864 -7.643127,5.732361c-4.620239,0.461975 -5.085632,1.706055 -8.916992,-1.273926c-2.186737,-1.700745 -4.108063,-6.544434 -8.28006,-4.458435c-4.311401,2.155701 -4.591614,1.607971 -7.643127,5.095398c-1.881012,2.149719 -3.40863,3.004028 -5.732361,5.095459c-1.183594,1.065186 -3.931458,5.000977 -6.369263,5.7323c-1.876251,0.562866 -6.474426,1.080933 -7.643127,3.184692c-1.158875,2.085938 -2.189941,4.384277 -4.458496,6.369263c-1.080017,0.944946 -1.76767,2.079895 -2.558075,3.127625c-0.790375,1.047791 -1.683472,2.008362 -3.174286,2.604736c-2.831116,1.132385 -6.509369,2.348938 -10.190857,3.821533c-1.153473,0.461426 -7.866608,4.241699 -8.916962,3.821594c-2.57019,-1.028076 -4.238037,-4.458557 -7.006226,-4.458557c-1.910767,0 -4.304199,-1.269409 -5.73233,0c-1.417908,1.260376 -3.542084,3.878601 -5.732361,5.095459c-3.038971,1.688293 -5.551422,4.385376 -9.553894,3.184631c-3.210022,-0.963013 -6.29715,-2.937073 -10.190857,-2.547729c-5.493256,0.549316 -5.656921,-0.662109 -7.790924,3.873779c-1.120758,-1.771484 -3.133026,-5.122803 -4.768341,-6.461609c-2.406586,-2.120361 -5.032928,-4.002808 -7.693237,-5.780579c-1.052948,-0.532166 -3.510529,-0.713623 -5.151276,-1.261047c4.619568,-0.692383 -9.718475,-2.653137 -12.312225,-2.974243c-7.161194,-1.941833 -14.303253,0.093811 -20.450226,3.858215c-6.056366,6.53125 -10.145264,-2.322876 -15.917114,-3.883911c-6.168701,-4.333923 -14.071167,1.009888 -20.33194,-3.362122c-3.883972,-4.985107 -10.909088,-11.711487 -2.240509,-16.048462c3.572906,-5.82373 5.777802,-12.283325 4.908844,-19.168396c-0.651825,-4.116943 -0.634796,-9.406067 -1.453491,-13.854675c-4.357422,-8.24646 1.842651,-16.485413 -6.12674,-23.075989c-5.141602,-10.121277 6.978363,-17.520142 5.950623,-26.623535c1.50824,-4.847839 2.393494,-8.780701 4.29715,-13.534363c1.919434,-4.793152 2.186676,-10.035583 4.291962,-14.879456c4.96225,-5.982666 12.896118,-8.661011 18.469574,-14.129211c4.596832,-7.512878 9.044617,-15.268127 19.009094,-16.630005c9.941406,-3.172668 18.387115,-9.400726 28.363159,-12.417084c6.669342,-3.849274 12.814575,-9.366516 20.43631,-11.11969c8.901489,1.289581 14.550049,-5.441315 21.909515,-8.6651c8.846527,-2.840332 18.472504,-0.67569 27.143707,-4.106598c12.748871,-5.406555 15.205811,11.750824 14.119171,20.559998c4.523651,3.140564 15.274323,2.662903 21.789734,2.687561z"/>
   </g>
   <path fill="#999999" fill-rule="evenodd" stroke="#000000" stroke-width="0.86702509pt" id="path7047" d="m601.588257,30.976501c1.321838,-1.321838 -2.919434,2.335541 -4.37915,3.503326c-1.351501,1.081207 5.583374,1.751648 6.130798,1.751648c3.417603,0 1.294067,-1.941162 2.627502,-3.941223c0.845337,-1.268036 -2.919434,-0.875824 -4.37915,-1.313751zm-17.078613,3.941223c0.937805,-1.406738 -6.700195,0.289032 -7.44458,0.437927c-1.548218,0.309631 1.36438,2.993866 2.627502,3.941223c0.847778,0.635834 4.830811,-0.307922 6.130798,-0.437927c3.79303,-0.379303 1.981628,-2.264709 3.06543,-3.503296c0.966003,-1.104034 -2.919434,-0.291962 -4.37915,-0.437927zm-28.450256,140.903931c-0.590576,-0.812073 -0.115295,-1.387512 -0.944336,-2.879761c-2.261414,-4.070618 -3.326965,-3.044067 -6.074524,-4.417847c-2.068359,-1.03418 -6.710327,-1.010742 -9.940186,-1.656677c-2.174377,-0.434875 -4.150574,-3.598328 -6.074524,-5.522339c-2.588989,-2.588928 -1.953857,-4.627747 -2.208984,-7.179016c-0.167664,-1.676636 3.15686,-4.058777 3.865662,-4.970093c1.387085,-1.783447 2.215942,-3.637024 3.865601,-5.522339c1.362976,-1.557617 1.875916,-4.964478 2.208923,-6.074524c0.360229,-1.200745 -1.319702,-6.598694 -1.656677,-8.283508c-0.699768,-3.49884 2.886108,-5.709778 3.865601,-7.179016c1.76825,-2.652283 2.383057,-3.95813 3.865662,-6.62677c0.998352,-1.797058 1.028076,-5.605774 2.208923,-7.731262c1.691284,-3.044373 0.653687,-4.462891 0,-7.731262c-0.153259,-0.766235 -3.796204,-1.423584 -4.190247,-1.118164c0.572998,-3.960602 -10.867004,-1.471558 -11.92688,-6.294281c-7.686035,-4.722656 6.435486,-9.507751 2.615601,-11.951263c-8.741577,-3.581757 1.427612,-6.428558 5.884277,-4.799744c6.811462,5.557404 19.924011,9.169128 23.919739,-1.864746c7.168396,-6.384918 17.899902,-2.125275 26.611145,-3.63031c26.527771,-8.625031 67.598083,-26.577606 66.562866,17.516541c11.069641,26.676025 43.482849,7.203369 42.861694,35.570679c36.525024,5.24292 4.177063,50.981323 19.733887,74.553955c-3.552124,18.425598 -12.196289,35.575073 -18.912415,50.689026c-5.980164,-2.288086 -11.97168,-3.336853 -12.982971,-10.130432c-5.55542,-5.046387 4.970947,-13.440979 -4.193909,-16.146667c-7.20575,-3.539124 -7.758484,-13.23645 -14.317444,-17.918701c-6.306946,-4.718567 -11.585999,-10.354858 -16.099915,-16.810913c-5.067139,-6.124939 -11.022949,-11.457764 -16.173889,-17.476929c-2.367859,-6.625244 -10.245605,-7.501404 -15.853027,-4.592102c-6.392822,4.4505 -13.616394,-0.674255 -15.206482,-7.368408c-0.165588,-7.435974 -12.450745,-3.487488 -10.287842,-12.392273c-2.626221,-7.044495 -12.778931,-8.509155 -17.256287,-2.251648c-3.336792,5.19458 -9.676819,7.784607 -11.347046,14.168213c-3.258728,5.231812 -1.62616,12.049072 -3.291016,17.065857c-3.045654,0.808716 -6.489014,0.525574 -9.523071,-0.266296"/>
  </g>
 </g>
</svg>